<?xml version="1.0" encoding="UTF-8" standalone="no"?>
<!DOCTYPE svg PUBLIC "-//W3C//DTD SVG 1.1//EN" "http://www.w3.org/Graphics/SVG/1.1/DTD/svg11.dtd">
<svg version="1.1" xmlns="http://www.w3.org/2000/svg" xmlns:xlink="http://www.w3.org/1999/xlink" preserveAspectRatio="xMidYMid meet" viewBox="0 0 640 640" width="640" height="640"><defs><path d="M224.26 242.89L242.34 212.04L254.04 191.82L276.38 183.31L296.6 176.93L327.45 170.55L354.04 176.93L375.32 191.82L381.7 225.87L392.34 236.51L406.17 257.78L411.49 282.25L402.98 318.42L402.98 355.65L398.72 375.87L368.94 412.04L354.04 424.8L306.17 424.8L272.13 412.04L242.34 369.48L234.89 337.57L224.26 299.22L224.26 270.55L224.26 242.89Z" id="ceZfrgYBA"></path><path d="M279.57 406.72L263.62 377.99" id="f2Joi2cwll"></path><path d="M368.94 370.55L362.55 341.82" id="b56X9zkL"></path><path d="M279.57 547.14L267.87 526.93L257.23 484.38L257.23 455.65L250.85 419.48L246.6 377.99" id="ap5XINw19"></path><path d="M365.74 547.14L385.96 489.7L381.7 474.8L385.96 389.7" id="c20UfQN6kF"></path><path d="M249.79 554.59L260.43 543.95L237.02 524.8L224.26 486.51L237.02 448.21L237.02 414.17L246.6 381.19" id="fhtVuj2xA"></path><path d="M411.49 549.92L401.91 541.82L401.91 520.55L401.91 507.78L411.49 491.82L429.57 482.25L426.38 458.85L411.49 424.8L390.21 392.36" id="j4xaMqOQUw"></path><path d="M64.68 547.14L64.68 527.99L78.51 487.57L104.04 474.8L118.94 474.8L149.79 462.57L184.89 449.27L214.68 442.89L230.64 429.06" id="b2frwS7OWv"></path><path d="M147.66 547.14L147.66 522.68L125.32 480.12" id="a1HlJFVGV5"></path><path d="M575.32 547.14L560.43 505.65L540.21 473.74L517.87 467.89L467.87 462.57L424.26 441.82" id="f1LeNtI1FP"></path><path d="M510.43 547.14L510.43 531.19L510.43 499.27L520 467.89" id="e3O3A3e35Y"></path><path d="M199.79 297.68L204.04 315.23L208.3 334.38L213.62 351.4L224.26 351.4L233.83 334.38" id="b9yMnWtOXh"></path><path d="M202.98 331.19L194.47 304.59L202.98 287.57L214.68 273.74L221.06 251.4" id="b40lRIvg46"></path><path d="M438.09 297.68L420 286.51L406.17 255.65L390.21 208.85" id="aIVUJTQ2O"></path><path d="M407.23 337.57L417.87 341.82L429.57 331.19L432.77 299.22" id="eNpxIi7x7"></path><path d="M194.47 208.85L211.49 212.04L246.6 192.89" id="d1YqWeYpma"></path><path d="M220.53 153.53L230.64 162.04L263.09 157.78L301.91 143.95L321.91 131.19L354.04 131.19L368.94 157.78" id="ef6GIen9b"></path><path d="M447.66 289.7L432.77 273.74L429.57 241.82L432.77 205.65L409.89 170.55L375.85 142.89" id="b1eRHVxyja"></path><path d="M178.51 289.7L185.96 268.42L199.79 242.89L230.64 218.42" id="gOIita4o4"></path><path d="M224.26 146.61L233.83 135.44L274.26 106.72L326.38 100.34L362.55 127.99" id="g1Y5DBI4Nb"></path><path d="M211.49 162.04L221.06 177.99L254.04 177.99L294.73 162.04L324.26 149.27L352.98 154.59" id="bPBmRzg36"></path><path d="M452.98 276.93L458.3 265.23L452.98 230.12L432.77 177.99L398.72 131.19L368.94 104.59L341.28 100.34" id="b1oYWQlU2H"></path><path d="M204.57 338.63L185.96 313.1L174.26 276.93L178.51 251.4L185.96 223.74L185.96 212.04L194.47 197.14L199.79 174.8L207.77 162.04L211.49 152.46L224.26 146.61" id="g1SG4xIzb"></path><path d="M331.7 267.36L317.87 264.17L300.85 270.55" id="e8Uws6Eri0"></path><path d="M279.57 254.06L252.98 256.72L233.83 264.17L233.83 276.93L246.6 291.29L267.87 293.95L289.15 289.7L297.66 280.12L300.85 264.17L279.57 254.06Z" id="b5NqybtbD"></path><path d="M365.74 251.4L390.21 254.06L394.47 274.01L385.96 285.44L362.55 289.7L335.96 285.44L327.45 276.93L327.45 259.91L341.28 253.26L365.74 251.4Z" id="aHBaYs9XB"></path><path d="M211.49 264.17L224.26 276.93L238.09 274.01" id="baOx9xyoqe"></path><path d="M409.89 259.91L390.21 264.17" id="h5gyRReRv0"></path><path d="M362.55 352.7L357.46 361.7L347.96 368.7L336.96 373.7L323.96 376.2L308.96 377.99L293.4 373.7L280.96 359.7" id="h3uY0H2rc0"></path><path d="M355.96 349.7L351.96 356.19L344.96 361.2L331.7 365.35L321.91 366.7L316.28 368.2L298.96 368.2L284.46 359.7" id="anjRxutnV"></path><path d="M352.98 347.7L341.28 345.7L331.7 345.7L321.91 347.7L312.96 349.7L299.46 349.7L280.96 356.19" id="c54CALcHM3"></path><path d="M358.96 348.2L348.46 340.7L330.46 338.63L319.16 340.7L304.96 341.82L282.23 352.7" id="b1i8qncI6h"></path><path d="M342.46 318.7L338.46 318.7L333.46 318.7L327.45 322.2L323.46 324.54L317.87 324.54L310.96 320.52L304.46 320.52L296.96 324.54" id="e9YFZ3MnI"></path><path d="M293.4 324.54L289.46 321.62L287.46 316.2L294.73 306.7" id="b3ZtmTLvS5"></path><path d="M348.96 313.2L346.96 304.7L342.46 297.68L336.46 299.22" id="bh5iwvpPk"></path><path d="M358.96 321.62L350.96 309.7" id="d6cwAAfJxv"></path><path d="M282.23 324.54L287.46 306.7L294.73 301.7" id="ahApmLEGO"></path><path d="M382.96 247.7L365.74 243.7L352.98 247.7L334.96 254.06" id="bmwofuawk"></path><path d="M243.46 258.7L255.46 253.26L276.46 251.4L291.1 254.06" id="ho5xMA0Gf"></path><path d="M308.96 270.55L307.46 291.29" id="bhw9s6sRi"></path><path d="M320.6 256.2L324.46 276.93L331.7 288.7" id="a7lU1W4rH"></path><path d="M345.96 416.7L362.55 406.72L375.85 381.19" id="b8PHdTCr"></path></defs><g><g><g><g><use xlink:href="#ceZfrgYBA" opacity="1" fill-opacity="0" stroke="#000000" stroke-width="3" stroke-opacity="1"></use></g></g><g><g><use xlink:href="#f2Joi2cwll" opacity="1" fill-opacity="0" stroke="#000000" stroke-width="2" stroke-opacity="1"></use></g></g><g><g><use xlink:href="#b56X9zkL" opacity="1" fill-opacity="0" stroke="#000000" stroke-width="2" stroke-opacity="1"></use></g></g><g><g><use xlink:href="#ap5XINw19" opacity="1" fill-opacity="0" stroke="#000000" stroke-width="3" stroke-opacity="1"></use></g></g><g><g><use xlink:href="#c20UfQN6kF" opacity="1" fill-opacity="0" stroke="#000000" stroke-width="3" stroke-opacity="1"></use></g></g><g><g><use xlink:href="#fhtVuj2xA" opacity="1" fill-opacity="0" stroke="#000000" stroke-width="3" stroke-opacity="1"></use></g></g><g><g><use xlink:href="#j4xaMqOQUw" opacity="1" fill-opacity="0" stroke="#000000" stroke-width="3" stroke-opacity="1"></use></g></g><g><g><use xlink:href="#b2frwS7OWv" opacity="1" fill-opacity="0" stroke="#000000" stroke-width="3" stroke-opacity="1"></use></g></g><g><g><use xlink:href="#a1HlJFVGV5" opacity="1" fill-opacity="0" stroke="#000000" stroke-width="3" stroke-opacity="1"></use></g></g><g><g><use xlink:href="#f1LeNtI1FP" opacity="1" fill-opacity="0" stroke="#000000" stroke-width="3" stroke-opacity="1"></use></g></g><g><g><use xlink:href="#e3O3A3e35Y" opacity="1" fill-opacity="0" stroke="#000000" stroke-width="3" stroke-opacity="1"></use></g></g><g><g><use xlink:href="#b9yMnWtOXh" opacity="1" fill-opacity="0" stroke="#000000" stroke-width="3" stroke-opacity="1"></use></g></g><g><g><use xlink:href="#b40lRIvg46" opacity="1" fill-opacity="0" stroke="#000000" stroke-width="3" stroke-opacity="1"></use></g></g><g><g><use xlink:href="#aIVUJTQ2O" opacity="1" fill-opacity="0" stroke="#000000" stroke-width="3" stroke-opacity="1"></use></g></g><g><g><use xlink:href="#eNpxIi7x7" opacity="1" fill-opacity="0" stroke="#000000" stroke-width="3" stroke-opacity="1"></use></g></g><g><g><use xlink:href="#d1YqWeYpma" opacity="1" fill-opacity="0" stroke="#000000" stroke-width="3" stroke-opacity="1"></use></g></g><g><g><use xlink:href="#ef6GIen9b" opacity="1" fill-opacity="0" stroke="#000000" stroke-width="3" stroke-opacity="1"></use></g></g><g><g><use xlink:href="#b1eRHVxyja" opacity="1" fill-opacity="0" stroke="#000000" stroke-width="3" stroke-opacity="1"></use></g></g><g><g><use xlink:href="#gOIita4o4" opacity="1" fill-opacity="0" stroke="#000000" stroke-width="3" stroke-opacity="1"></use></g></g><g><g><use xlink:href="#g1Y5DBI4Nb" opacity="1" fill-opacity="0" stroke="#000000" stroke-width="3" stroke-opacity="1"></use></g></g><g><g><use xlink:href="#bPBmRzg36" opacity="1" fill-opacity="0" stroke="#000000" stroke-width="3" stroke-opacity="1"></use></g></g><g><g><use xlink:href="#b1oYWQlU2H" opacity="1" fill-opacity="0" stroke="#000000" stroke-width="3" stroke-opacity="1"></use></g></g><g><g><use xlink:href="#g1SG4xIzb" opacity="1" fill-opacity="0" stroke="#000000" stroke-width="3" stroke-opacity="1"></use></g></g><g><g><use xlink:href="#e8Uws6Eri0" opacity="1" fill-opacity="0" stroke="#000000" stroke-width="3" stroke-opacity="1"></use></g></g><g><g><use xlink:href="#b5NqybtbD" opacity="1" fill-opacity="0" stroke="#000000" stroke-width="3" stroke-opacity="1"></use></g></g><g><g><use xlink:href="#aHBaYs9XB" opacity="1" fill-opacity="0" stroke="#000000" stroke-width="3" stroke-opacity="1"></use></g></g><g><g><use xlink:href="#baOx9xyoqe" opacity="1" fill-opacity="0" stroke="#000000" stroke-width="3" stroke-opacity="1"></use></g></g><g><g><use xlink:href="#h5gyRReRv0" opacity="1" fill-opacity="0" stroke="#000000" stroke-width="3" stroke-opacity="1"></use></g></g><g><g><use xlink:href="#h3uY0H2rc0" opacity="1" fill-opacity="0" stroke="#000000" stroke-width="2" stroke-opacity="1"></use></g></g><g><g><use xlink:href="#anjRxutnV" opacity="1" fill-opacity="0" stroke="#000000" stroke-width="2" stroke-opacity="1"></use></g></g><g><g><use xlink:href="#c54CALcHM3" opacity="1" fill-opacity="0" stroke="#000000" stroke-width="2" stroke-opacity="1"></use></g></g><g><g><use xlink:href="#b1i8qncI6h" opacity="1" fill-opacity="0" stroke="#000000" stroke-width="2" stroke-opacity="1"></use></g></g><g><g><use xlink:href="#e9YFZ3MnI" opacity="1" fill-opacity="0" stroke="#000000" stroke-width="2" stroke-opacity="1"></use></g></g><g><g><use xlink:href="#b3ZtmTLvS5" opacity="1" fill-opacity="0" stroke="#000000" stroke-width="2" stroke-opacity="1"></use></g></g><g><g><use xlink:href="#bh5iwvpPk" opacity="1" fill-opacity="0" stroke="#000000" stroke-width="2" stroke-opacity="1"></use></g></g><g><g><use xlink:href="#d6cwAAfJxv" opacity="1" fill-opacity="0" stroke="#000000" stroke-width="2" stroke-opacity="1"></use></g></g><g><g><use xlink:href="#ahApmLEGO" opacity="1" fill-opacity="0" stroke="#000000" stroke-width="2" stroke-opacity="1"></use></g></g><g><g><use xlink:href="#bmwofuawk" opacity="1" fill-opacity="0" stroke="#000000" stroke-width="3" stroke-opacity="1"></use></g></g><g><g><use xlink:href="#ho5xMA0Gf" opacity="1" fill-opacity="0" stroke="#000000" stroke-width="3" stroke-opacity="1"></use></g></g><g><g><use xlink:href="#bhw9s6sRi" opacity="1" fill-opacity="0" stroke="#000000" stroke-width="3" stroke-opacity="1"></use></g></g><g><g><use xlink:href="#a7lU1W4rH" opacity="1" fill-opacity="0" stroke="#000000" stroke-width="3" stroke-opacity="1"></use></g></g><g><g><use xlink:href="#b8PHdTCr" opacity="1" fill-opacity="0" stroke="#000000" stroke-width="2" stroke-opacity="1"></use></g></g></g></g></svg>