<?xml version="1.0" encoding="UTF-8" standalone="no"?>
<!DOCTYPE svg PUBLIC "-//W3C//DTD SVG 1.1//EN" "http://www.w3.org/Graphics/SVG/1.1/DTD/svg11.dtd">
<svg version="1.1" xmlns="http://www.w3.org/2000/svg" xmlns:xlink="http://www.w3.org/1999/xlink" preserveAspectRatio="xMidYMid meet" viewBox="0 0 640 640" width="640" height="640"><defs><path d="M193.54 229.5L179.08 172.67L185.28 158.2L202.85 132.36L224.55 119.96L249.64 119.96L270.02 123.06L283.45 113.76L315.49 113.76L336.16 126.16L348.56 155.1L354.76 184.03L359.93 202.64L367.16 220.2L370.26 239.84L365.09 258.44L365.09 283.24L367.16 315.28L354.76 344.22L341.33 362.82L326.86 375.22L279.09 375.22L247.28 362.82L217.31 338.02L202.85 304.95L193.54 278.08L185.28 253.27L193.54 229.5Z" id="a3KwY387W2"></path><path d="M204.91 312.18L192.51 316.31L184.24 304.95L167.71 288.41L158.41 264.64L158.41 240.87L167.71 240.87L184.24 255.34" id="a4ZuVwlW6D"></path><path d="M370.26 296.68L377.5 285.31L377.5 266.71L377.5 244.49L377.5 222.27L370.26 222.27" id="c2NggWPCJd"></path><path d="M370.26 216.07L366.13 195.4L366.13 155.1L355.79 130.29L340.29 113.76L315.49 98.26L279.09 83.79L243.15 83.79L214.21 98.26L196.64 98.26L179.08 122.03L155.31 159.23L155.31 191.27L158.41 210.9L165.64 235.71" id="c3JeiyW5sg"></path><path d="M236.95 387.62L219.38 343.18" id="d44kxZ1Eqs"></path><path d="M366.13 352.48L360.96 334.91" id="c1VKvnkvK"></path><path d="M295.85 420.69L336.16 477.53L383.7 409.32L389.9 378.32L373.88 343.18L360.96 339.05" id="c1x0FSg5q7"></path><path d="M366.13 355.58L295.85 420.69" id="c9iw9PcFYt"></path><path d="M234.88 440.33L256.58 485.8L285.52 420.69L228.16 393.82L228.16 379.35" id="gCjA4uHyC"></path><path d="M232.82 441.36L228.16 398.99" id="fkRp1dvO"></path><path d="M256.84 586.04L256.84 538.5L262.78 494.06L285.52 459.96L279.09 443.43" id="c1QqWbm82L"></path><path d="M330.99 590.17L330.99 579.84L323.76 537.47L311.36 496.13L298.96 462.03L311.36 449.63" id="b523P0Gvw"></path><path d="M298.96 466.16L285.52 458.93" id="a3klWpZIU"></path><path d="M249.64 590.17L232.82 524.03L230.49 443.43" id="f1PECiV2w"></path><path d="M334.09 586.04L380.6 420.17" id="g4ahoy7fnH"></path><path d="M181.66 577.77L155.31 508.53L188.38 477.53L170.81 466.16L228.16 402.09" id="azPQLt65C"></path><path d="M400.23 580.87L462.24 449.63L430.2 437.22L457.07 420.17L446.74 398.99L389.9 365.4" id="ahxl4J5nW"></path><path d="M48.86 594.67L60.23 508.53L74.7 503.11L194.58 435.16" id="c3jF2HSst"></path><path d="M86.07 590.17L74.7 506.46" id="c11iV9ttJy"></path><path d="M355.62 240.87L341.62 229.53L328.12 229.53" id="b8wHZdKGe"></path><path d="M599.09 458.93L591.42 432.57L448.8 394.85" id="gI2HEATcs"></path><path d="M534.58 586.04L534.58 548.32L548.01 480.63L555.25 443.43L576.95 432.57" id="gFvEGaTdF"></path><path d="M292.24 201.78L300.12 223.28L313.12 242.78L313.12 250.28L322.12 259.47L320.12 267.78L314.97 263.28L308.12 265.28L298.96 271.28L292.24 265.28L284.12 265.28L280.62 271.28" id="b22FLxoHv"></path><path d="M267.62 261.78L251.62 307.78" id="aO6WRgvwR"></path><path d="M335.62 288.28L324.62 264.28" id="be7khevB0"></path><path d="M334.09 307.78L324.62 305.28L311.12 309.28L290.12 309.28L273.62 312.78L264.62 320.78" id="ibxyce20T"></path><path d="M330.12 303.78L313.62 301.28L303.62 303.78L288.12 305.28L271.18 312.78" id="edlRtVTl7"></path><path d="M330.12 301.28L310.12 296.68L306.12 299.28L297.12 296.68L264.62 313.03" id="d62ed9jCy"></path><path d="M332.62 310.78L324.62 316.31L313.12 318.78L297.37 320.78L274.67 316.31" id="adxLxjZ4O"></path><path d="M271.18 225.78L258.12 225.78L240.06 227.28L234.12 233.28" id="m1P5TVk0Sp"></path><path d="M270.12 222.27L261.12 215.78L249.64 218.28L240.06 225.78" id="f5uzgtdLLM"></path><path d="M342.88 218.28L337.12 218.28L324.62 220.78L309.12 218.28" id="b89SjhyLG0"></path><path d="M342.88 215.78L339.12 212.28L330.99 209.78L320.62 207.78L310.62 215.78" id="e9BjaQaL7"></path><path d="M221.12 261.78L232.82 244.49L244.12 239.78L267.62 229.53" id="a72Hejzq"></path><path d="M215.12 233.28L227.12 235.71" id="aBXaknCGK"></path><path d="M217.62 225.78L227.12 229.28" id="aIpEPRKAf"></path><path d="M280.62 201.78L283.12 195.28" id="c1kDePVeWR"></path><path d="M273.62 206.28L256.84 207.78L227.12 218.28" id="aQks2tAZ0"></path><path d="M347.62 201.78L328.12 197.78L307.62 201.78" id="f7wsUNz7bz"></path><path d="M289.12 193.28L285.52 178.78" id="h2yYUcthG4"></path><path d="M302.53 288.28L301.37 278.59" id="b1kEF8GygO"></path><path d="M338.85 165.25L322.12 158.25L291.35 159.75" id="fVh0YxrOx"></path><path d="M221.12 192.25L234.12 183.25L255.09 180.25" id="c1M76mhfn3"></path><path d="M219.38 175.75L241.35 165.25" id="bc00FeC1u"></path><path d="M336.85 151.75L324.62 144.25L310.62 142.75" id="b1aftYGhdY"></path><path d="M280.62 445.5L299.36 426.89" id="a3R3GJ2dJm"></path><path d="M312.85 503.11L297.37 494.5L283.12 470.5" id="d33j2rxVhC"></path><path d="M324.62 542.5L307.62 533.5L285.52 514.91L267.62 485.8" id="amGQTLnVH"></path><path d="M332.62 583.5L302.53 559.5L289.99 552.5L259.62 522.5" id="h8y4UnJx1b"></path><path d="M297.37 592.5L259.62 562.5" id="bS8e4bgAD"></path></defs><g><g><g><g><use xlink:href="#a3KwY387W2" opacity="1" fill-opacity="0" stroke="#000000" stroke-width="1" stroke-opacity="1"></use></g></g><g><g><use xlink:href="#a4ZuVwlW6D" opacity="1" fill-opacity="0" stroke="#000000" stroke-width="1" stroke-opacity="1"></use></g></g><g><g><use xlink:href="#c2NggWPCJd" opacity="1" fill-opacity="0" stroke="#000000" stroke-width="1" stroke-opacity="1"></use></g></g><g><g><use xlink:href="#c3JeiyW5sg" opacity="1" fill-opacity="0" stroke="#000000" stroke-width="1" stroke-opacity="1"></use></g></g><g><g><use xlink:href="#d44kxZ1Eqs" opacity="1" fill-opacity="0" stroke="#000000" stroke-width="1" stroke-opacity="1"></use></g></g><g><g><use xlink:href="#c1VKvnkvK" opacity="1" fill-opacity="0" stroke="#000000" stroke-width="1" stroke-opacity="1"></use></g></g><g><g><use xlink:href="#c1x0FSg5q7" opacity="1" fill-opacity="0" stroke="#000000" stroke-width="1" stroke-opacity="1"></use></g></g><g><g><use xlink:href="#c9iw9PcFYt" opacity="1" fill-opacity="0" stroke="#000000" stroke-width="1" stroke-opacity="1"></use></g></g><g><g><use xlink:href="#gCjA4uHyC" opacity="1" fill-opacity="0" stroke="#000000" stroke-width="1" stroke-opacity="1"></use></g></g><g><g><use xlink:href="#fkRp1dvO" opacity="1" fill-opacity="0" stroke="#000000" stroke-width="1" stroke-opacity="1"></use></g></g><g><g><use xlink:href="#c1QqWbm82L" opacity="1" fill-opacity="0" stroke="#000000" stroke-width="1" stroke-opacity="1"></use></g></g><g><g><use xlink:href="#b523P0Gvw" opacity="1" fill-opacity="0" stroke="#000000" stroke-width="1" stroke-opacity="1"></use></g></g><g><g><use xlink:href="#a3klWpZIU" opacity="1" fill-opacity="0" stroke="#000000" stroke-width="1" stroke-opacity="1"></use></g></g><g><g><use xlink:href="#f1PECiV2w" opacity="1" fill-opacity="0" stroke="#000000" stroke-width="1" stroke-opacity="1"></use></g></g><g><g><use xlink:href="#g4ahoy7fnH" opacity="1" fill-opacity="0" stroke="#000000" stroke-width="1" stroke-opacity="1"></use></g></g><g><g><use xlink:href="#azPQLt65C" opacity="1" fill-opacity="0" stroke="#000000" stroke-width="1" stroke-opacity="1"></use></g></g><g><g><use xlink:href="#ahxl4J5nW" opacity="1" fill-opacity="0" stroke="#000000" stroke-width="1" stroke-opacity="1"></use></g></g><g><g><use xlink:href="#c3jF2HSst" opacity="1" fill-opacity="0" stroke="#000000" stroke-width="1" stroke-opacity="1"></use></g></g><g><g><use xlink:href="#c11iV9ttJy" opacity="1" fill-opacity="0" stroke="#000000" stroke-width="1" stroke-opacity="1"></use></g></g><g><g><use xlink:href="#b8wHZdKGe" opacity="1" fill-opacity="0" stroke="#000000" stroke-width="1" stroke-opacity="1"></use></g></g><g><g><use xlink:href="#gI2HEATcs" opacity="1" fill-opacity="0" stroke="#000000" stroke-width="1" stroke-opacity="1"></use></g></g><g><g><use xlink:href="#gFvEGaTdF" opacity="1" fill-opacity="0" stroke="#000000" stroke-width="1" stroke-opacity="1"></use></g></g><g><g><use xlink:href="#b22FLxoHv" opacity="1" fill-opacity="0" stroke="#000000" stroke-width="1" stroke-opacity="1"></use></g></g><g><g><use xlink:href="#aO6WRgvwR" opacity="1" fill-opacity="0" stroke="#000000" stroke-width="1" stroke-opacity="1"></use></g></g><g><g><use xlink:href="#be7khevB0" opacity="1" fill-opacity="0" stroke="#000000" stroke-width="1" stroke-opacity="1"></use></g></g><g><g><use xlink:href="#ibxyce20T" opacity="1" fill-opacity="0" stroke="#000000" stroke-width="1" stroke-opacity="1"></use></g></g><g><g><use xlink:href="#edlRtVTl7" opacity="1" fill-opacity="0" stroke="#000000" stroke-width="1" stroke-opacity="1"></use></g></g><g><g><use xlink:href="#d62ed9jCy" opacity="1" fill-opacity="0" stroke="#000000" stroke-width="1" stroke-opacity="1"></use></g></g><g><g><use xlink:href="#adxLxjZ4O" opacity="1" fill-opacity="0" stroke="#000000" stroke-width="1" stroke-opacity="1"></use></g></g><g><g><use xlink:href="#m1P5TVk0Sp" opacity="1" fill-opacity="0" stroke="#000000" stroke-width="1" stroke-opacity="1"></use></g></g><g><g><use xlink:href="#f5uzgtdLLM" opacity="1" fill-opacity="0" stroke="#000000" stroke-width="1" stroke-opacity="1"></use></g></g><g><g><use xlink:href="#b89SjhyLG0" opacity="1" fill-opacity="0" stroke="#000000" stroke-width="1" stroke-opacity="1"></use></g></g><g><g><use xlink:href="#e9BjaQaL7" opacity="1" fill-opacity="0" stroke="#000000" stroke-width="1" stroke-opacity="1"></use></g></g><g><g><use xlink:href="#a72Hejzq" opacity="1" fill-opacity="0" stroke="#000000" stroke-width="1" stroke-opacity="1"></use></g></g><g><g><use xlink:href="#aBXaknCGK" opacity="1" fill-opacity="0" stroke="#000000" stroke-width="1" stroke-opacity="1"></use></g></g><g><g><use xlink:href="#aIpEPRKAf" opacity="1" fill-opacity="0" stroke="#000000" stroke-width="1" stroke-opacity="1"></use></g></g><g><g><use xlink:href="#c1kDePVeWR" opacity="1" fill-opacity="0" stroke="#000000" stroke-width="1" stroke-opacity="1"></use></g></g><g><g><use xlink:href="#aQks2tAZ0" opacity="1" fill-opacity="0" stroke="#000000" stroke-width="1" stroke-opacity="1"></use></g></g><g><g><use xlink:href="#f7wsUNz7bz" opacity="1" fill-opacity="0" stroke="#000000" stroke-width="1" stroke-opacity="1"></use></g></g><g><g><use xlink:href="#h2yYUcthG4" opacity="1" fill-opacity="0" stroke="#000000" stroke-width="1" stroke-opacity="1"></use></g></g><g><g><use xlink:href="#b1kEF8GygO" opacity="1" fill-opacity="0" stroke="#000000" stroke-width="1" stroke-opacity="1"></use></g></g><g><g><use xlink:href="#fVh0YxrOx" opacity="1" fill-opacity="0" stroke="#000000" stroke-width="1" stroke-opacity="1"></use></g></g><g><g><use xlink:href="#c1M76mhfn3" opacity="1" fill-opacity="0" stroke="#000000" stroke-width="1" stroke-opacity="1"></use></g></g><g><g><use xlink:href="#bc00FeC1u" opacity="1" fill-opacity="0" stroke="#000000" stroke-width="1" stroke-opacity="1"></use></g></g><g><g><use xlink:href="#b1aftYGhdY" opacity="1" fill-opacity="0" stroke="#000000" stroke-width="1" stroke-opacity="1"></use></g></g><g><g><use xlink:href="#a3R3GJ2dJm" opacity="1" fill-opacity="0" stroke="#000000" stroke-width="1" stroke-opacity="1"></use></g></g><g><g><use xlink:href="#d33j2rxVhC" opacity="1" fill-opacity="0" stroke="#000000" stroke-width="1" stroke-opacity="1"></use></g></g><g><g><use xlink:href="#amGQTLnVH" opacity="1" fill-opacity="0" stroke="#000000" stroke-width="1" stroke-opacity="1"></use></g></g><g><g><use xlink:href="#h8y4UnJx1b" opacity="1" fill-opacity="0" stroke="#000000" stroke-width="1" stroke-opacity="1"></use></g></g><g><g><use xlink:href="#bS8e4bgAD" opacity="1" fill-opacity="0" stroke="#000000" stroke-width="1" stroke-opacity="1"></use></g></g></g></g></svg>