<?xml version="1.0" encoding="UTF-8" standalone="no"?>
<!DOCTYPE svg PUBLIC "-//W3C//DTD SVG 1.1//EN" "http://www.w3.org/Graphics/SVG/1.1/DTD/svg11.dtd">
<svg version="1.1" xmlns="http://www.w3.org/2000/svg" xmlns:xlink="http://www.w3.org/1999/xlink" preserveAspectRatio="xMidYMid meet" viewBox="0 0 640 640" width="640" height="640"><defs><path d="M193.54 229.5L179.08 172.67L185.28 158.2L202.85 132.36L224.55 119.96L249.64 119.96L270.02 123.06L283.45 113.76L315.49 113.76L336.16 126.16L348.56 155.1L354.76 184.03L359.93 202.64L367.16 220.2L370.26 239.84L365.09 258.44L365.09 283.24L367.16 315.28L354.76 344.22L341.33 362.82L326.86 375.22L279.09 375.22L247.28 362.82L217.31 338.02L202.85 304.95L193.54 278.08L185.28 253.27L193.54 229.5Z" id="jD5kQDc6m"></path><path d="M204.91 312.18L192.51 316.31L184.24 304.95L167.71 288.41L158.41 264.64L158.41 240.87L167.71 240.87L184.24 255.34" id="dvnFkeK54"></path><path d="M370.26 296.68L377.5 285.31L377.5 266.71L377.5 244.49L377.5 222.27L370.26 222.27" id="d1CP5Uy9hP"></path><path d="M370.26 216.07L366.13 195.4L366.13 155.1L355.79 130.29L340.29 113.76L315.49 98.26L279.09 83.79L243.15 83.79L214.21 98.26L196.64 98.26L179.08 122.03L155.31 159.23L155.31 191.27L158.41 210.9L165.64 235.71" id="b8nEow3cv"></path><path d="M236.95 387.62L219.38 343.18" id="eqZv8tICa"></path><path d="M366.13 352.48L360.96 334.91" id="bpOUzJR5A"></path><path d="M295.85 420.69L336.16 477.53L383.7 409.32L389.9 378.32L373.88 343.18L360.96 339.05" id="a9q2ZUXmB"></path><path d="M366.13 355.58L295.85 420.69" id="b8TWmN3AUn"></path><path d="M234.88 440.33L256.58 485.8L285.52 420.69L228.16 393.82L228.16 379.35" id="d1h8fxtDBd"></path><path d="M232.82 441.36L228.16 398.99" id="auuYn7nsp"></path><path d="M256.84 586.04L256.84 538.5L262.78 494.06L285.52 459.96L279.09 443.43" id="b4Abdx77ig"></path><path d="M330.99 590.17L330.99 579.84L323.76 537.47L311.36 496.13L298.96 462.03L311.36 449.63" id="cAXecvwPq"></path><path d="M298.96 466.16L285.52 458.93" id="anZlrmdCl"></path><path d="M249.64 590.17L232.82 524.03L230.49 443.43" id="a18uUFYE1c"></path><path d="M334.09 586.04L380.6 420.17" id="eewo0nnTh"></path><path d="M181.66 577.77L155.31 508.53L188.38 477.53L170.81 466.16L228.16 402.09" id="cPV7z9Ikp"></path><path d="M400.23 580.87L462.24 449.63L430.2 437.22L457.07 420.17L446.74 398.99L389.9 365.4" id="f7lfa69Jo"></path><path d="M48.86 594.67L60.23 508.53L74.7 503.11L194.58 435.16" id="bSjBLYnmY"></path><path d="M86.07 590.17L74.7 506.46" id="ck91V28FH"></path><path d="M355.62 240.87L341.62 229.53L328.12 229.53" id="d17JbwUENF"></path><path d="M599.09 458.93L591.42 432.57L448.8 394.85" id="ab4uQL9lr"></path><path d="M534.58 586.04L534.58 548.32L548.01 480.63L555.25 443.43L576.95 432.57" id="cafojRGXDs"></path><path d="M292.24 201.78L300.12 223.28L313.12 242.78L313.12 250.28L322.12 259.47L320.12 267.78L314.97 263.28L308.12 265.28L298.96 271.28L292.24 265.28L284.12 265.28L280.62 271.28" id="b3E6gX9g6K"></path><path d="M267.62 261.78L251.62 307.78" id="czhemjcC"></path><path d="M335.62 288.28L324.62 264.28" id="a1GM2DQveO"></path><path d="M334.09 307.78L324.62 305.28L311.12 309.28L290.12 309.28L273.62 312.78L264.62 320.78" id="l2Be1ESUjg"></path><path d="M330.12 303.78L313.62 301.28L303.62 303.78L288.12 305.28L271.18 312.78" id="a8kiAFWi"></path><path d="M330.12 301.28L310.12 296.68L306.12 299.28L297.12 296.68L264.62 313.03" id="b4FSl55ZwP"></path><path d="M332.62 310.78L324.62 316.31L313.12 318.78L297.37 320.78L274.67 316.31" id="c7w1QZMhb"></path><path d="M271.18 225.78L258.12 225.78L240.06 227.28L234.12 233.28" id="b2l4WxYW74"></path><path d="M270.12 222.27L261.12 215.78L249.64 218.28L240.06 225.78" id="a4bjGxNrXg"></path><path d="M342.88 218.28L337.12 218.28L324.62 220.78L309.12 218.28" id="h1aW09K2Ys"></path><path d="M342.88 215.78L339.12 212.28L330.99 209.78L320.62 207.78L310.62 215.78" id="h1YhcHE7v2"></path><path d="M221.12 261.78L232.82 244.49L244.12 239.78L267.62 229.53" id="b29puAfSg9"></path><path d="M215.12 233.28L227.12 235.71" id="h5fLKjWrzQ"></path><path d="M217.62 225.78L227.12 229.28" id="bAtTuyzSz"></path><path d="M280.62 201.78L283.12 195.28" id="cLhSo2c7d"></path><path d="M273.62 206.28L256.84 207.78L227.12 218.28" id="dPfaNmTM"></path><path d="M347.62 201.78L328.12 197.78L307.62 201.78" id="a7Yy0eB7f"></path><path d="M289.12 193.28L285.52 178.78" id="d2jKeb41Ul"></path><path d="M302.53 288.28L301.37 278.59" id="beoY1OU29"></path><path d="M338.85 165.25L322.12 158.25L291.35 159.75" id="eMuK2ramy"></path><path d="M221.12 192.25L234.12 183.25L255.09 180.25" id="a5vUzYMIDS"></path><path d="M219.38 175.75L241.35 165.25" id="a3vNWkUAFh"></path><path d="M336.85 151.75L324.62 144.25L310.62 142.75" id="d4JdI9axgU"></path><path d="M280.62 445.5L299.36 426.89" id="c1uLTmAvNa"></path><path d="M312.85 503.11L297.37 494.5L283.12 470.5" id="aJbRmrEIP"></path><path d="M324.62 542.5L307.62 533.5L285.52 514.91L267.62 485.8" id="bzzI4YZSG"></path><path d="M332.62 583.5L302.53 559.5L289.99 552.5L259.62 522.5" id="a6vk2foL9"></path><path d="M297.37 592.5L259.62 562.5" id="c5ue20tczo"></path></defs><g><g><g><g><use xlink:href="#jD5kQDc6m" opacity="1" fill-opacity="0" stroke="#000000" stroke-width="3" stroke-opacity="1"></use></g></g><g><g><use xlink:href="#dvnFkeK54" opacity="1" fill-opacity="0" stroke="#000000" stroke-width="3" stroke-opacity="1"></use></g></g><g><g><use xlink:href="#d1CP5Uy9hP" opacity="1" fill-opacity="0" stroke="#000000" stroke-width="3" stroke-opacity="1"></use></g></g><g><g><use xlink:href="#b8nEow3cv" opacity="1" fill-opacity="0" stroke="#000000" stroke-width="3" stroke-opacity="1"></use></g></g><g><g><use xlink:href="#eqZv8tICa" opacity="1" fill-opacity="0" stroke="#000000" stroke-width="3" stroke-opacity="1"></use></g></g><g><g><use xlink:href="#bpOUzJR5A" opacity="1" fill-opacity="0" stroke="#000000" stroke-width="3" stroke-opacity="1"></use></g></g><g><g><use xlink:href="#a9q2ZUXmB" opacity="1" fill-opacity="0" stroke="#000000" stroke-width="3" stroke-opacity="1"></use></g></g><g><g><use xlink:href="#b8TWmN3AUn" opacity="1" fill-opacity="0" stroke="#000000" stroke-width="3" stroke-opacity="1"></use></g></g><g><g><use xlink:href="#d1h8fxtDBd" opacity="1" fill-opacity="0" stroke="#000000" stroke-width="3" stroke-opacity="1"></use></g></g><g><g><use xlink:href="#auuYn7nsp" opacity="1" fill-opacity="0" stroke="#000000" stroke-width="3" stroke-opacity="1"></use></g></g><g><g><use xlink:href="#b4Abdx77ig" opacity="1" fill-opacity="0" stroke="#000000" stroke-width="3" stroke-opacity="1"></use></g></g><g><g><use xlink:href="#cAXecvwPq" opacity="1" fill-opacity="0" stroke="#000000" stroke-width="3" stroke-opacity="1"></use></g></g><g><g><use xlink:href="#anZlrmdCl" opacity="1" fill-opacity="0" stroke="#000000" stroke-width="3" stroke-opacity="1"></use></g></g><g><g><use xlink:href="#a18uUFYE1c" opacity="1" fill-opacity="0" stroke="#000000" stroke-width="3" stroke-opacity="1"></use></g></g><g><g><use xlink:href="#eewo0nnTh" opacity="1" fill-opacity="0" stroke="#000000" stroke-width="3" stroke-opacity="1"></use></g></g><g><g><use xlink:href="#cPV7z9Ikp" opacity="1" fill-opacity="0" stroke="#000000" stroke-width="3" stroke-opacity="1"></use></g></g><g><g><use xlink:href="#f7lfa69Jo" opacity="1" fill-opacity="0" stroke="#000000" stroke-width="3" stroke-opacity="1"></use></g></g><g><g><use xlink:href="#bSjBLYnmY" opacity="1" fill-opacity="0" stroke="#000000" stroke-width="3" stroke-opacity="1"></use></g></g><g><g><use xlink:href="#ck91V28FH" opacity="1" fill-opacity="0" stroke="#000000" stroke-width="3" stroke-opacity="1"></use></g></g><g><g><use xlink:href="#d17JbwUENF" opacity="1" fill-opacity="0" stroke="#000000" stroke-width="2" stroke-opacity="1"></use></g></g><g><g><use xlink:href="#ab4uQL9lr" opacity="1" fill-opacity="0" stroke="#000000" stroke-width="3" stroke-opacity="1"></use></g></g><g><g><use xlink:href="#cafojRGXDs" opacity="1" fill-opacity="0" stroke="#000000" stroke-width="3" stroke-opacity="1"></use></g></g><g><g><use xlink:href="#b3E6gX9g6K" opacity="1" fill-opacity="0" stroke="#000000" stroke-width="3" stroke-opacity="1"></use></g></g><g><g><use xlink:href="#czhemjcC" opacity="1" fill-opacity="0" stroke="#000000" stroke-width="2" stroke-opacity="1"></use></g></g><g><g><use xlink:href="#a1GM2DQveO" opacity="1" fill-opacity="0" stroke="#000000" stroke-width="2" stroke-opacity="1"></use></g></g><g><g><use xlink:href="#l2Be1ESUjg" opacity="1" fill-opacity="0" stroke="#000000" stroke-width="3" stroke-opacity="1"></use></g></g><g><g><use xlink:href="#a8kiAFWi" opacity="1" fill-opacity="0" stroke="#000000" stroke-width="3" stroke-opacity="1"></use></g></g><g><g><use xlink:href="#b4FSl55ZwP" opacity="1" fill-opacity="0" stroke="#000000" stroke-width="3" stroke-opacity="1"></use></g></g><g><g><use xlink:href="#c7w1QZMhb" opacity="1" fill-opacity="0" stroke="#000000" stroke-width="3" stroke-opacity="1"></use></g></g><g><g><use xlink:href="#b2l4WxYW74" opacity="1" fill-opacity="0" stroke="#000000" stroke-width="3" stroke-opacity="1"></use></g></g><g><g><use xlink:href="#a4bjGxNrXg" opacity="1" fill-opacity="0" stroke="#000000" stroke-width="3" stroke-opacity="1"></use></g></g><g><g><use xlink:href="#h1aW09K2Ys" opacity="1" fill-opacity="0" stroke="#000000" stroke-width="3" stroke-opacity="1"></use></g></g><g><g><use xlink:href="#h1YhcHE7v2" opacity="1" fill-opacity="0" stroke="#000000" stroke-width="3" stroke-opacity="1"></use></g></g><g><g><use xlink:href="#b29puAfSg9" opacity="1" fill-opacity="0" stroke="#000000" stroke-width="2" stroke-opacity="1"></use></g></g><g><g><use xlink:href="#h5fLKjWrzQ" opacity="1" fill-opacity="0" stroke="#000000" stroke-width="2" stroke-opacity="1"></use></g></g><g><g><use xlink:href="#bAtTuyzSz" opacity="1" fill-opacity="0" stroke="#000000" stroke-width="2" stroke-opacity="1"></use></g></g><g><g><use xlink:href="#cLhSo2c7d" opacity="1" fill-opacity="0" stroke="#000000" stroke-width="3" stroke-opacity="1"></use></g></g><g><g><use xlink:href="#dPfaNmTM" opacity="1" fill-opacity="0" stroke="#000000" stroke-width="4" stroke-opacity="1"></use></g></g><g><g><use xlink:href="#a7Yy0eB7f" opacity="1" fill-opacity="0" stroke="#000000" stroke-width="4" stroke-opacity="1"></use></g></g><g><g><use xlink:href="#d2jKeb41Ul" opacity="1" fill-opacity="0" stroke="#000000" stroke-width="3" stroke-opacity="1"></use></g></g><g><g><use xlink:href="#beoY1OU29" opacity="1" fill-opacity="0" stroke="#000000" stroke-width="3" stroke-opacity="1"></use></g></g><g><g><use xlink:href="#eMuK2ramy" opacity="1" fill-opacity="0" stroke="#000000" stroke-width="2" stroke-opacity="1"></use></g></g><g><g><use xlink:href="#a5vUzYMIDS" opacity="1" fill-opacity="0" stroke="#000000" stroke-width="2" stroke-opacity="1"></use></g></g><g><g><use xlink:href="#a3vNWkUAFh" opacity="1" fill-opacity="0" stroke="#000000" stroke-width="2" stroke-opacity="1"></use></g></g><g><g><use xlink:href="#d4JdI9axgU" opacity="1" fill-opacity="0" stroke="#000000" stroke-width="2" stroke-opacity="1"></use></g></g><g><g><use xlink:href="#c1uLTmAvNa" opacity="1" fill-opacity="0" stroke="#000000" stroke-width="3" stroke-opacity="1"></use></g></g><g><g><use xlink:href="#aJbRmrEIP" opacity="1" fill-opacity="0" stroke="#000000" stroke-width="3" stroke-opacity="1"></use></g></g><g><g><use xlink:href="#bzzI4YZSG" opacity="1" fill-opacity="0" stroke="#000000" stroke-width="3" stroke-opacity="1"></use></g></g><g><g><use xlink:href="#a6vk2foL9" opacity="1" fill-opacity="0" stroke="#000000" stroke-width="3" stroke-opacity="1"></use></g></g><g><g><use xlink:href="#c5ue20tczo" opacity="1" fill-opacity="0" stroke="#000000" stroke-width="3" stroke-opacity="1"></use></g></g></g></g></svg>