<?xml version="1.0" encoding="UTF-8" standalone="no"?>
<!DOCTYPE svg PUBLIC "-//W3C//DTD SVG 1.1//EN" "http://www.w3.org/Graphics/SVG/1.1/DTD/svg11.dtd">
<svg version="1.1" xmlns="http://www.w3.org/2000/svg" xmlns:xlink="http://www.w3.org/1999/xlink" preserveAspectRatio="xMidYMid meet" viewBox="0 0 640 640" width="640" height="640"><defs><path d="M186 153.5L199 128.5L227 99.5L263 81.5L289 74.5L320 77.5L348 87.5L373 99.5L399 113.5L420 137.5L432 182.5L444 246.5L447 288.5L424 341.5L373 407.5L342 434.5L308 448.5L272 454.5L222 440.5L214 424.5L192 386.5L176 335.5L168 288.5L168 254.5L168 226.5L171 195.5L176 173.5L186 153.5Z" id="ddPcjJAx"></path><path d="M468 411.5L468 401.5L468 346.5" id="a2is2fJtP"></path><path d="M320 595.5L335 531.5L335 510.5L344 497.5L366 481.5L393 464.5L427 435.5L465 411.5" id="b2Ob08bSNv"></path><path d="M436 544.5L420 519.5L399 484.5L376 474.5" id="edEDjGVtX"></path><path d="M406 640L436 550.5L460 467.5L474 435.5L482 416.5L471 411.5" id="a2gj8FYihB"></path><path d="M602.71 474.5L593 468.5L566 459.5L514 431.5L477 411.5" id="diUOec1Wx"></path><path d="M529 640L602.71 515.5L546 499.5L596 483.5L572 461.5" id="f3aKI1peOv"></path><path d="M198 640L205 614.5L220 553.5L223 513.5L223 498.5L230 474.5" id="a2MkTynQaE"></path><path d="M209 612.5L223 581.5L233 534.5L245 503.5L233 480.5" id="a4A29FP"></path><path d="M273 634.5L262 586.5L240 520.5" id="b7UXNynd6i"></path><path d="M47.89 627.5L95 604.5L125 580.5L151 559.5L188 533.5L220 500.5" id="l17hhdjudS"></path><path d="M102 640L94 627.5L145 586.5L128 581.5" id="b14WwfUvGK"></path><path d="M457 334.5L465 339.43L477 342.5L490 334.5L500 308.5L511 285.5L507 257.5L490 240.5L474 243.5L465 253.5L447 276.5" id="f1Fi6kvSuS"></path><path d="M444 401.5L447 370.5L453 336.5L465 304.5L465 264.5" id="a6pdPQePyL"></path><path d="M468 310.5L477 317.5L492 304.5L499 282.5L499 260.5L482 249.5L468 264.5" id="c73sxtwUx"></path><path d="M193.3 389.75L186.8 389.75L181.8 385.75L183.3 374.75L178.3 362.25L164.8 325.25L163.3 301.75L168 296.75" id="dRpbQIQZM"></path><path d="M163.3 299.5L155.86 291.5L160.86 260.5L155.86 199.5L163.3 164.5L183.86 126.5" id="b4Qvy6Wglb"></path><path d="M406 90.5L378.86 78.5L352.86 63.5L317.86 38.5L268.86 38.5L227 58.5L200.86 90.5L190.86 113.5L193.3 136.5" id="a31lRFapGq"></path><path d="M499 240.5L491.86 197.5L468 141.5L423.86 87.5L384.86 65.5L335.86 50.5" id="a3c9x1q18J"></path><path d="M470.86 394.5L479 382.5L483.5 339.43" id="a1kp4pkDwZ"></path><path d="M395.86 96.5L368.86 87.5L335.86 62.5L303.86 50.5L245 62.5" id="aIpZuX3B8"></path><path d="M370.25 204.25L359.75 201.75L347.25 204.25L325.3 206.75L310.75 208.75" id="b1YqtXTLtF"></path><path d="M386.25 208.75L377.75 207.25L368.25 201.75L355.25 194.25L343.75 188.25L330.75 189.75L318.75 196.25L310.75 207.25" id="cUZU0ak"></path><path d="M335.86 184.25L325.3 186.75L317.75 194.25" id="f1Tp2HlYBU"></path><path d="M358.75 188.25L352.25 182.25L337.25 180.25L326.8 182.25L310.75 191.75" id="e343ipSZ80"></path><path d="M199.25 223.75L206.75 223.75L213.25 223.75L229.25 221.75L242.75 218.75" id="a18U4NuJeu"></path><path d="M188.25 238.25L190.86 232.75L195.75 225.25L201.75 215.25L209.25 210.75L221 206.75L234.75 208.75L242.75 217.25" id="a1v1U76Uhj"></path><path d="M234.25 203.75L224.75 201.75L214.25 201.75L205.75 205.25L190.86 221.25" id="daih0HM3sE"></path><path d="M206.25 247.75L212.55 247.75L221 245.25L231.25 242.75L241.25 231.25" id="a4FTzxLH8V"></path><path d="M374.75 214.25L362.25 211.5L350.25 211.5L326.8 214.25" id="baCKogHU2"></path><path d="M250.75 261.25L253.75 254.75L263.25 233.25L263.25 206.75" id="cCNVL03oS"></path><path d="M248.75 291.5L248.75 283.25L252.25 276.75L259.25 280.25L268.25 286.75L276.75 293.75" id="dwbmGaNHT"></path><path d="M313.25 280.25L313.25 272.25L305.25 269.25L294.75 272.25L287.25 280.25L291.25 285.25" id="a6SNUIB0z8"></path><path d="M242.75 293.75L237.25 286.75L237.25 277.25L241.25 270.75L248.75 264.5" id="bopD2ClFg"></path><path d="M328.25 276.75L330.25 265.75L320 254.75L304.25 251.75" id="agKdW3E6"></path><path d="M362.75 333L372.25 313.75L364.75 296.75L348.5 277.25L330.25 259.75" id="b6zgETW1Q"></path><path d="M202.25 321.75L210.75 317.25L221 305.25L228.75 291.5" id="eYi0NJfRl"></path><path d="M388.25 342.5L397.25 321.75L407.25 302.75L408.75 291.5L388.25 279.13" id="f1tz0kdakv"></path><path d="M253.75 359.25L262.75 359.25L270.75 359.25L280.25 361.75L298.43 356.75L313.25 350.25L320 350.25L334.75 342.5L343.25 334.25L347.25 328.25L334.75 324.25L321.75 321.75L300.25 325.75L285.25 328.25L276.75 328.25L258.25 335.75L242.75 352.25L253.75 359.25Z" id="efOnV5MuS"></path><path d="M350.78 324.25L345.25 321.75L330.25 316.75L320 313.25L307.5 309.25L298.43 310.81L283.25 316.75L275.25 316.75L265.75 320L250.75 328.75L241.25 348.75" id="en15KghMe"></path><path d="M347.25 338.25L330.25 354.75L320.43 366.75L310.75 374.25L290.25 378.75L274.75 380.75L262.75 374.25L242.75 356.75" id="a4baR0cyLZ"></path><path d="" id="jFTwM0jms"></path><path d="M228.75 182.25L212.55 184.25L194.75 195.75L176.75 214.25L176.75 195.75L183.86 186L199.25 175.25L219.25 168.25L232.25 168.25L241.25 182.25L228.75 182.25Z" id="a4FuYvIFU"></path><path d="M325.3 150.25L345.25 150.25L365.25 155.25L379.75 164.75L386.25 189.25L372.25 176.75L355.75 166.25L335.86 163.25L302.75 173.75L304.25 155.25L325.3 150.25Z" id="fSjZmLWig"></path><path d="M234.25 486.67L230 443" id="c1khaBSqDn"></path><path d="M310.75 634.5L320.43 595.5" id="d668Mo8fCJ"></path><path d="M632.09 486.67L602.71 474.5" id="e1YtmbEj5t"></path><path d="M477.18 261.25L482 269.25L470.86 277.25" id="c17Ozs6IB"></path><path d="M470.86 304.5L479 296.75L470.86 285.25" id="d19Hgx2EU1"></path></defs><g><g><g><g><use xlink:href="#ddPcjJAx" opacity="1" fill-opacity="0" stroke="#000000" stroke-width="3" stroke-opacity="1"></use></g></g><g><g><use xlink:href="#a2is2fJtP" opacity="1" fill-opacity="0" stroke="#000000" stroke-width="3" stroke-opacity="1"></use></g></g><g><g><use xlink:href="#b2Ob08bSNv" opacity="1" fill-opacity="0" stroke="#000000" stroke-width="3" stroke-opacity="1"></use></g></g><g><g><use xlink:href="#edEDjGVtX" opacity="1" fill-opacity="0" stroke="#000000" stroke-width="3" stroke-opacity="1"></use></g></g><g><g><use xlink:href="#a2gj8FYihB" opacity="1" fill-opacity="0" stroke="#000000" stroke-width="3" stroke-opacity="1"></use></g></g><g><g><use xlink:href="#diUOec1Wx" opacity="1" fill-opacity="0" stroke="#000000" stroke-width="3" stroke-opacity="1"></use></g></g><g><g><use xlink:href="#f3aKI1peOv" opacity="1" fill-opacity="0" stroke="#000000" stroke-width="3" stroke-opacity="1"></use></g></g><g><g><use xlink:href="#a2MkTynQaE" opacity="1" fill-opacity="0" stroke="#000000" stroke-width="3" stroke-opacity="1"></use></g></g><g><g><use xlink:href="#a4A29FP" opacity="1" fill-opacity="0" stroke="#000000" stroke-width="3" stroke-opacity="1"></use></g></g><g><g><use xlink:href="#b7UXNynd6i" opacity="1" fill-opacity="0" stroke="#000000" stroke-width="3" stroke-opacity="1"></use></g></g><g><g><use xlink:href="#l17hhdjudS" opacity="1" fill-opacity="0" stroke="#000000" stroke-width="3" stroke-opacity="1"></use></g></g><g><g><use xlink:href="#b14WwfUvGK" opacity="1" fill-opacity="0" stroke="#000000" stroke-width="3" stroke-opacity="1"></use></g></g><g><g><use xlink:href="#f1Fi6kvSuS" opacity="1" fill-opacity="0" stroke="#000000" stroke-width="3" stroke-opacity="1"></use></g></g><g><g><use xlink:href="#a6pdPQePyL" opacity="1" fill-opacity="0" stroke="#000000" stroke-width="3" stroke-opacity="1"></use></g></g><g><g><use xlink:href="#c73sxtwUx" opacity="1" fill-opacity="0" stroke="#000000" stroke-width="3" stroke-opacity="1"></use></g></g><g><g><use xlink:href="#dRpbQIQZM" opacity="1" fill-opacity="0" stroke="#000000" stroke-width="3" stroke-opacity="1"></use></g></g><g><g><use xlink:href="#b4Qvy6Wglb" opacity="1" fill-opacity="0" stroke="#000000" stroke-width="3" stroke-opacity="1"></use></g></g><g><g><use xlink:href="#a31lRFapGq" opacity="1" fill-opacity="0" stroke="#000000" stroke-width="3" stroke-opacity="1"></use></g></g><g><g><use xlink:href="#a3c9x1q18J" opacity="1" fill-opacity="0" stroke="#000000" stroke-width="3" stroke-opacity="1"></use></g></g><g><g><use xlink:href="#a1kp4pkDwZ" opacity="1" fill-opacity="0" stroke="#000000" stroke-width="3" stroke-opacity="1"></use></g></g><g><g><use xlink:href="#aIpZuX3B8" opacity="1" fill-opacity="0" stroke="#000000" stroke-width="3" stroke-opacity="1"></use></g></g><g><g><use xlink:href="#b1YqtXTLtF" opacity="1" fill-opacity="0" stroke="#000000" stroke-width="3" stroke-opacity="1"></use></g></g><g><g><use xlink:href="#cUZU0ak" opacity="1" fill-opacity="0" stroke="#000000" stroke-width="3" stroke-opacity="1"></use></g></g><g><g><use xlink:href="#f1Tp2HlYBU" opacity="1" fill-opacity="0" stroke="#000000" stroke-width="3" stroke-opacity="1"></use></g></g><g><g><use xlink:href="#e343ipSZ80" opacity="1" fill-opacity="0" stroke="#000000" stroke-width="3" stroke-opacity="1"></use></g></g><g><g><use xlink:href="#a18U4NuJeu" opacity="1" fill-opacity="0" stroke="#000000" stroke-width="3" stroke-opacity="1"></use></g></g><g><g><use xlink:href="#a1v1U76Uhj" opacity="1" fill-opacity="0" stroke="#000000" stroke-width="3" stroke-opacity="1"></use></g></g><g><g><use xlink:href="#daih0HM3sE" opacity="1" fill-opacity="0" stroke="#000000" stroke-width="3" stroke-opacity="1"></use></g></g><g><g><use xlink:href="#a4FTzxLH8V" opacity="1" fill-opacity="0" stroke="#000000" stroke-width="2" stroke-opacity="1"></use></g></g><g><g><use xlink:href="#baCKogHU2" opacity="1" fill-opacity="0" stroke="#000000" stroke-width="2" stroke-opacity="1"></use></g></g><g><g><use xlink:href="#cCNVL03oS" opacity="1" fill-opacity="0" stroke="#000000" stroke-width="3" stroke-opacity="1"></use></g></g><g><g><use xlink:href="#dwbmGaNHT" opacity="1" fill-opacity="0" stroke="#000000" stroke-width="3" stroke-opacity="1"></use></g></g><g><g><use xlink:href="#a6SNUIB0z8" opacity="1" fill-opacity="0" stroke="#000000" stroke-width="3" stroke-opacity="1"></use></g></g><g><g><use xlink:href="#bopD2ClFg" opacity="1" fill-opacity="0" stroke="#000000" stroke-width="3" stroke-opacity="1"></use></g></g><g><g><use xlink:href="#agKdW3E6" opacity="1" fill-opacity="0" stroke="#000000" stroke-width="3" stroke-opacity="1"></use></g></g><g><g><use xlink:href="#b6zgETW1Q" opacity="1" fill-opacity="0" stroke="#000000" stroke-width="1" stroke-opacity="1"></use></g></g><g><g><use xlink:href="#eYi0NJfRl" opacity="1" fill-opacity="0" stroke="#000000" stroke-width="1" stroke-opacity="1"></use></g></g><g><g><use xlink:href="#f1tz0kdakv" opacity="1" fill-opacity="0" stroke="#000000" stroke-width="1" stroke-opacity="1"></use></g></g><g><g><use xlink:href="#efOnV5MuS" opacity="1" fill-opacity="0" stroke="#000000" stroke-width="3" stroke-opacity="1"></use></g></g><g><g><use xlink:href="#en15KghMe" opacity="1" fill-opacity="0" stroke="#000000" stroke-width="3" stroke-opacity="1"></use></g></g><g><g><use xlink:href="#a4baR0cyLZ" opacity="1" fill-opacity="0" stroke="#000000" stroke-width="3" stroke-opacity="1"></use></g></g><g><g><use xlink:href="#jFTwM0jms" opacity="1" fill-opacity="0" stroke="#000000" stroke-width="3" stroke-opacity="1"></use></g></g><g><g><use xlink:href="#a4FuYvIFU" opacity="1" fill-opacity="0" stroke="#000000" stroke-width="3" stroke-opacity="1"></use></g></g><g><g><use xlink:href="#fSjZmLWig" opacity="1" fill-opacity="0" stroke="#000000" stroke-width="3" stroke-opacity="1"></use></g></g><g><g><use xlink:href="#c1khaBSqDn" opacity="1" fill-opacity="0" stroke="#000000" stroke-width="3" stroke-opacity="1"></use></g></g><g><g><use xlink:href="#d668Mo8fCJ" opacity="1" fill-opacity="0" stroke="#000000" stroke-width="3" stroke-opacity="1"></use></g></g><g><g><use xlink:href="#e1YtmbEj5t" opacity="1" fill-opacity="0" stroke="#000000" stroke-width="3" stroke-opacity="1"></use></g></g><g><g><use xlink:href="#c17Ozs6IB" opacity="1" fill-opacity="0" stroke="#000000" stroke-width="1" stroke-opacity="1"></use></g></g><g><g><use xlink:href="#d19Hgx2EU1" opacity="1" fill-opacity="0" stroke="#000000" stroke-width="1" stroke-opacity="1"></use></g></g></g></g></svg>