<?xml version="1.0" encoding="UTF-8" standalone="no"?>
<!DOCTYPE svg PUBLIC "-//W3C//DTD SVG 1.1//EN" "http://www.w3.org/Graphics/SVG/1.1/DTD/svg11.dtd">
<svg version="1.1" xmlns="http://www.w3.org/2000/svg" xmlns:xlink="http://www.w3.org/1999/xlink" preserveAspectRatio="xMidYMid meet" viewBox="0 0 640 640" width="640" height="640"><defs><path d="M281.08 120.87L251.88 130.09L236.51 156.22L224.22 183.89L224.22 214.63L231.9 243.83L238.05 274.57L250.35 302.23L267.25 326.83L290.31 346.81L314.9 365.25L344.1 359.1L374.84 346.81L390.21 319.14L397.89 289.94L399.43 257.66L388.67 228.46L385.6 197.72L377.91 168.52L362.54 140.85L337.95 122.41L307.21 116.26" id="dSuZ2dU0u"></path><path d="M296.45 225.39L299.53 256.12L270.33 266.88L242.66 254.59L253.42 225.39L284.16 226.92" id="fAWUR4PUI"></path><path d="M368.69 236.14L361.01 246.13L336.42 251.51L319.51 243.83L314.9 225.39L331.8 214.63L365.62 211.55L368.69 236.14Z" id="aboVba8I3"></path><path d="M256.9 312.94L245 309.23L232.36 282.46L224.22 272.04L213.77 257.17L221.95 249.74L234.59 259.4" id="cf4BWrEtI"></path><path d="M399.43 281.34L404.14 274.28L404.14 261.63L407.11 249.74L413.8 234.86L413.8 219.25L409.34 208.09L395.21 211.55L389.26 222.22" id="byvViuaMi"></path><path d="M314.9 231.53L307.47 228.91L297.06 231.53" id="asylHTeN0"></path><path d="M392.98 199.17L378.85 216.27L368.69 219.25" id="a2Nfz6w4D"></path><path d="M221.21 249.74L244.26 244.72" id="b2Ps7BA91M"></path><path d="M348.37 301.05L341.8 298.82L329.03 295.84L323.83 301.05L311.82 298.82L303 309.23" id="bkmmtQNAe"></path><path d="M348.37 305.51L339.44 320.38L318.62 322.98L308.21 320.38L303 309.23" id="a1DsZquUfu"></path><path d="M311.82 234.12C313.82 237.34 317.8 243.79 323.77 253.45L331.26 260.15L331.26 269.81L323.77 269.81L314.9 275.02L305.98 272.79L297.06 275.02L297.06 266.88L303 234.12" id="h2hVBTscqC"></path><path d="M221.21 249.74L217.49 244.72L201.13 240.76L201.13 222.97L201.13 193.96L217.49 159.01L247.98 133.73" id="dhxzV0Qx4"></path><path d="M408.6 208.09L401.53 188.76L399.43 168.68L386.29 153.81L389.26 138.19L373.65 133.73L368.69 124.06L335.72 116.26" id="e4ifRhqXKL"></path><path d="M335.72 492.9L337.95 456.46L341.8 428.21L351.34 412.59L361.01 398.46L372.16 376.15L380.84 356.07L392.98 333.02L397.44 306.62L399.43 284.69" id="cCcAQoRPZ"></path><path d="M348.37 408.87L318.62 397.72L299.53 397.72L291.85 386.56L297.06 378.38L303 370.95L291.85 352.36" id="f6Xkg8I16"></path><path d="M297.06 396.23L289.62 386.56L279.95 341.2" id="d1v2CHg8X4"></path><path d="M339.44 446.8L335.72 434.15L327.54 419.28L303 399.95" id="k9oQOETHdB"></path><path d="M405.62 284.69L405.62 300.3L405.62 322.98L405.62 373.18L392.98 403.67L392.98 386.56L395.96 373.18L392.98 362.77L382.57 359.79" id="aUkZ79T1S"></path><path d="M367.58 518.18L363.98 483.23L367.58 408.87L387.03 380.61" id="aoLsejhuI"></path><path d="M166.92 391.02L160.23 362.77L160.23 322.98L187.74 318.15L242.66 309.23" id="boEwMvzxV"></path><path d="M447.27 347.89L465.86 327.82L441.32 293.61L405.62 269.07" id="c1ke0bRxc0"></path><path d="M443.55 540.49L479.24 360.54L408.6 327.82" id="d7IrrEWVxd"></path><path d="M596.74 428.95L601.2 380.61L582.61 318.15L535.01 298.82L479.24 289.89L427.93 281.34" id="a1uhQ5ZXLy"></path><path d="M69.8 373.18L77.98 352.36L80.95 329.3L80.95 314.25L75.75 305.51L75.75 284.69L72.03 272.79L72.03 254.57L80.95 244.72L93.59 237.84L106.98 234.12L113.67 230.22L121.11 214.04L134.49 214.04L132.26 206.61L141.18 193.96L155.31 193.96L160.23 201.4L157.54 219.25L165.72 219.25L165.72 231.53L173.16 242.3L178.37 277.99L160.23 322.98L150.11 336.74L110.7 414.08" id="f9QCakbKS"></path><path d="M102.02 244.72L105.49 247.23L116.4 257.3L119.37 264.24L125.32 276.63L122.35 281.34L113.92 280.1L103.01 276.63L94.09 264.24L84.17 264.24" id="d9RLj62fH"></path><path d="M124.08 235.98L127.8 244.72L132.76 258.29L138.71 271.18L145.15 276.63L147.63 286.05L145.15 291.5L138.71 295.84L127.8 289.02L125.32 276.63" id="b65mSVccb"></path><path d="M140.69 220.12L144.65 223.09L146.64 234.12L147.63 244.72L154.57 252.83L156.06 261.26L156.06 271.67L146.64 275.02" id="adXlNl4ku"></path><path d="M147.63 242.42L149.61 235.98L148.37 228.91L158.54 220.12" id="a5O5l9rVcV"></path><path d="M361.01 208.09L345.52 204.25L335.72 206.23L317.75 215.65" id="dPK61vadW"></path><path d="M289.99 221.6L274.13 217.14L261.73 219.25L246.37 231.53" id="anpf3zmqQ"></path><path d="M304.37 218.13L303 208.09" id="c11tzmoVFs"></path><path d="M288.5 209.21L279.95 206.23L268.18 199.17" id="eVDuh7Liy"></path><path d="M317.75 201.28L323.77 195.33L331.26 186.4" id="a3MFeIYJqn"></path><path d="M143.01 211.19L149.45 214.66L153.08 205.24" id="cq6NRcarv"></path><path d="M77.45 443.2L75.47 414.08L67.54 399.95L65.55 389.66L69.8 372.81" id="b96hwn06TN"></path><path d="M77.45 426.35L84.17 423.37L102.73 421.39L117.11 415.44L129.01 398.58L129.01 384.21" id="b1p9GHkOy"></path><path d="M58.79 452.13L56.81 428.33L56.81 405.28L61.27 384.21L66.72 370.82" id="h1JDopMZ7"></path><path d="M56.81 417.92L57.8 431.8L64.25 452.13L77.45 457.58L100.43 449.65L115.8 426.35L129.01 402.55" id="b5bugznDlF"></path><path d="M23.1 461.05L32.02 434.77L44.42 411.47L61.77 377.76" id="c1DwKfux7K"></path><path d="M125.32 471.96L125.32 443.2L131.67 395.11" id="b2JEBypVXf"></path><path d="M354.09 438.24L348.37 436.26L347.15 431.3L351.12 426.84" id="b7agi6SWa"></path><path d="M356.57 509.07L352.48 509.07L348.37 506.1L347.15 502.38L350.62 498.66L355.46 498.66" id="h1VqueGtZ"></path><path d="M356.57 298.07L350.62 278.74L339.38 271.3" id="g5hompWyJ"></path><path d="M291.85 308.48L288.5 295.84L293.36 281.34" id="d1DRKadKdR"></path><path d="M332.28 300.92L337.24 304.02L332.28 307.37L325.69 310.34L320.11 310.34L312.95 308.48" id="bu1yFfA2d"></path><path d="M331.26 300.92L325.09 302.53L321.22 304.02L314.9 302.53L312.95 307.37" id="j19SozwJSQ"></path></defs><g><g><g><g><use xlink:href="#dSuZ2dU0u" opacity="1" fill-opacity="0" stroke="#000000" stroke-width="3" stroke-opacity="1"></use></g></g><g><g><use xlink:href="#fAWUR4PUI" opacity="1" fill-opacity="0" stroke="#000000" stroke-width="3" stroke-opacity="1"></use></g></g><g><g><use xlink:href="#aboVba8I3" opacity="1" fill-opacity="0" stroke="#000000" stroke-width="3" stroke-opacity="1"></use></g></g><g><g><use xlink:href="#cf4BWrEtI" opacity="1" fill-opacity="0" stroke="#000000" stroke-width="3" stroke-opacity="1"></use></g></g><g><g><use xlink:href="#byvViuaMi" opacity="1" fill-opacity="0" stroke="#000000" stroke-width="3" stroke-opacity="1"></use></g></g><g><g><use xlink:href="#asylHTeN0" opacity="1" fill-opacity="0" stroke="#000000" stroke-width="3" stroke-opacity="1"></use></g></g><g><g><use xlink:href="#a2Nfz6w4D" opacity="1" fill-opacity="0" stroke="#000000" stroke-width="3" stroke-opacity="1"></use></g></g><g><g><use xlink:href="#b2Ps7BA91M" opacity="1" fill-opacity="0" stroke="#000000" stroke-width="3" stroke-opacity="1"></use></g></g><g><g><use xlink:href="#bkmmtQNAe" opacity="1" fill-opacity="0" stroke="#000000" stroke-width="3" stroke-opacity="1"></use></g></g><g><g><use xlink:href="#a1DsZquUfu" opacity="1" fill-opacity="0" stroke="#000000" stroke-width="3" stroke-opacity="1"></use></g></g><g><g><use xlink:href="#h2hVBTscqC" opacity="1" fill-opacity="0" stroke="#000000" stroke-width="3" stroke-opacity="1"></use></g></g><g><g><use xlink:href="#dhxzV0Qx4" opacity="1" fill-opacity="0" stroke="#000000" stroke-width="3" stroke-opacity="1"></use></g></g><g><g><use xlink:href="#e4ifRhqXKL" opacity="1" fill-opacity="0" stroke="#000000" stroke-width="3" stroke-opacity="1"></use></g></g><g><g><use xlink:href="#cCcAQoRPZ" opacity="1" fill-opacity="0" stroke="#000000" stroke-width="3" stroke-opacity="1"></use></g></g><g><g><use xlink:href="#f6Xkg8I16" opacity="1" fill-opacity="0" stroke="#000000" stroke-width="3" stroke-opacity="1"></use></g></g><g><g><use xlink:href="#d1v2CHg8X4" opacity="1" fill-opacity="0" stroke="#000000" stroke-width="3" stroke-opacity="1"></use></g></g><g><g><use xlink:href="#k9oQOETHdB" opacity="1" fill-opacity="0" stroke="#000000" stroke-width="3" stroke-opacity="1"></use></g></g><g><g><use xlink:href="#aUkZ79T1S" opacity="1" fill-opacity="0" stroke="#000000" stroke-width="3" stroke-opacity="1"></use></g></g><g><g><use xlink:href="#aoLsejhuI" opacity="1" fill-opacity="0" stroke="#000000" stroke-width="3" stroke-opacity="1"></use></g></g><g><g><use xlink:href="#boEwMvzxV" opacity="1" fill-opacity="0" stroke="#000000" stroke-width="3" stroke-opacity="1"></use></g></g><g><g><use xlink:href="#c1ke0bRxc0" opacity="1" fill-opacity="0" stroke="#000000" stroke-width="3" stroke-opacity="1"></use></g></g><g><g><use xlink:href="#d7IrrEWVxd" opacity="1" fill-opacity="0" stroke="#000000" stroke-width="3" stroke-opacity="1"></use></g></g><g><g><use xlink:href="#a1uhQ5ZXLy" opacity="1" fill-opacity="0" stroke="#000000" stroke-width="3" stroke-opacity="1"></use></g></g><g><g><use xlink:href="#f9QCakbKS" opacity="1" fill-opacity="0" stroke="#000000" stroke-width="3" stroke-opacity="1"></use></g></g><g><g><use xlink:href="#d9RLj62fH" opacity="1" fill-opacity="0" stroke="#000000" stroke-width="3" stroke-opacity="1"></use></g></g><g><g><use xlink:href="#b65mSVccb" opacity="1" fill-opacity="0" stroke="#000000" stroke-width="3" stroke-opacity="1"></use></g></g><g><g><use xlink:href="#adXlNl4ku" opacity="1" fill-opacity="0" stroke="#000000" stroke-width="3" stroke-opacity="1"></use></g></g><g><g><use xlink:href="#a5O5l9rVcV" opacity="1" fill-opacity="0" stroke="#000000" stroke-width="3" stroke-opacity="1"></use></g></g><g><g><use xlink:href="#dPK61vadW" opacity="1" fill-opacity="0" stroke="#000000" stroke-width="3" stroke-opacity="1"></use></g></g><g><g><use xlink:href="#anpf3zmqQ" opacity="1" fill-opacity="0" stroke="#000000" stroke-width="3" stroke-opacity="1"></use></g></g><g><g><use xlink:href="#c11tzmoVFs" opacity="1" fill-opacity="0" stroke="#000000" stroke-width="2" stroke-opacity="1"></use></g></g><g><g><use xlink:href="#eVDuh7Liy" opacity="1" fill-opacity="0" stroke="#000000" stroke-width="2" stroke-opacity="1"></use></g></g><g><g><use xlink:href="#a3MFeIYJqn" opacity="1" fill-opacity="0" stroke="#000000" stroke-width="2" stroke-opacity="1"></use></g></g><g><g><use xlink:href="#cq6NRcarv" opacity="1" fill-opacity="0" stroke="#000000" stroke-width="3" stroke-opacity="1"></use></g></g><g><g><use xlink:href="#b96hwn06TN" opacity="1" fill-opacity="0" stroke="#000000" stroke-width="3" stroke-opacity="1"></use></g></g><g><g><use xlink:href="#b1p9GHkOy" opacity="1" fill-opacity="0" stroke="#000000" stroke-width="3" stroke-opacity="1"></use></g></g><g><g><use xlink:href="#h1JDopMZ7" opacity="1" fill-opacity="0" stroke="#000000" stroke-width="3" stroke-opacity="1"></use></g></g><g><g><use xlink:href="#b5bugznDlF" opacity="1" fill-opacity="0" stroke="#000000" stroke-width="3" stroke-opacity="1"></use></g></g><g><g><use xlink:href="#c1DwKfux7K" opacity="1" fill-opacity="0" stroke="#000000" stroke-width="3" stroke-opacity="1"></use></g></g><g><g><use xlink:href="#b2JEBypVXf" opacity="1" fill-opacity="0" stroke="#000000" stroke-width="3" stroke-opacity="1"></use></g></g><g><g><use xlink:href="#b7agi6SWa" opacity="1" fill-opacity="0" stroke="#000000" stroke-width="3" stroke-opacity="1"></use></g></g><g><g><use xlink:href="#h1VqueGtZ" opacity="1" fill-opacity="0" stroke="#000000" stroke-width="3" stroke-opacity="1"></use></g></g><g><g><use xlink:href="#g5hompWyJ" opacity="1" fill-opacity="0" stroke="#000000" stroke-width="2" stroke-opacity="1"></use></g></g><g><g><use xlink:href="#d1DRKadKdR" opacity="1" fill-opacity="0" stroke="#000000" stroke-width="2" stroke-opacity="1"></use></g></g><g><g><use xlink:href="#bu1yFfA2d" opacity="1" fill-opacity="0" stroke="#000000" stroke-width="2" stroke-opacity="1"></use></g></g><g><g><use xlink:href="#j19SozwJSQ" opacity="1" fill-opacity="0" stroke="#000000" stroke-width="2" stroke-opacity="1"></use></g></g></g></g></svg>