<?xml version="1.0" encoding="UTF-8" standalone="no"?>
<!DOCTYPE svg PUBLIC "-//W3C//DTD SVG 1.1//EN" "http://www.w3.org/Graphics/SVG/1.1/DTD/svg11.dtd">
<svg version="1.1" xmlns="http://www.w3.org/2000/svg" xmlns:xlink="http://www.w3.org/1999/xlink" preserveAspectRatio="xMidYMid meet" viewBox="0 0 640 640" width="640" height="640"><defs><path d="M408 468L408 443L405 360" id="d65ZWCnM07"></path><path d="M337 607.5L349 595L367 570L399 509L413 468L408 437" id="b11Pb8Jvtb"></path><path d="M428 610L440 548L445 531L453 503L448 477L408 440" id="hKC6J3L0K"></path><path d="M640 553L627 546L597 532L545 514L514 500L485 487L460 468L428 453" id="dxHKvVTDX"></path><path d="M524 610L514 598L550 558L517 503" id="a2nipxv92"></path><path d="M266 601L248 566L223 513L223 492" id="haNjwPM8Hi"></path><path d="M227 607.5L223 522.25" id="bLVA6WJzg"></path><path d="M27 610L27 596L34 569L106 543L165 517L223 492" id="e3VIuSt8Ya"></path><path d="M4 601L20 577L34 571" id="b2GwH8cSw9"></path><path d="M428 604L422 626L352 601" id="a43v7nhah0"></path><path d="M227 597L227 623L266 597" id="aZR3vOjdG"></path><path d="M154.26 263.5L155.76 238L160.76 230.5L171.76 213L178.26 205L196.76 196.5L210.76 182.5L249.76 169.5L281.76 160L291.76 162.5" id="eT9BI8JNn"></path><path d="M290.26 161.5L303.76 167L321.26 179L335.76 202L337 225L344.76 238.5L359.76 258.5L372.26 281.5L372.26 297L368.76 323L379.76 318L383.26 328L385.76 350L379.76 371.5L375 398.5L365.76 414L342.26 445L322.76 463.5L303.76 480.5L283.76 490L250.26 493L227 492L212.76 485L204.26 465.5L192.76 437L186.26 428L172.26 408.5L165.26 380.5L157.26 355.5L154.26 333L157.26 303.5L157.26 289" id="cAXl1QgUp"></path><path d="M381.68 318L385.76 310L391.18 301L397.18 295L406.5 281.5L416.18 269L426.68 263.5L437.18 265.5L442.68 276L444.18 293.5L434.68 318L422.18 339.5L406.5 360L381.68 368" id="a1elWRNx7r"></path><path d="M437.68 283L436.18 272L430.5 272L423.18 276.5L410.68 288" id="a6hnPjrZxd"></path><path d="M419.18 329L432.18 312L432.18 289.5" id="b5yRkpdW"></path><path d="M394.68 333L401.68 326L409.18 326L417.68 311.5L403.68 297.5" id="h1DcTZ80Gx"></path><path d="M444.18 284.5L446.44 276.5L449.44 248L453.44 219L453.44 184.5L437.68 153.5L425.68 137L400.44 117.5L376.44 106.5L353.94 87.5L318.94 76.5L279.44 76.5L238.44 85L198.94 104.5L176.94 121.5L164.44 143.5L157.44 161.5L154.26 181.5L149.94 203.5L149.94 229.5L149.94 261.5" id="dbAIv7z2VF"></path><path d="M208.68 396.5L214.18 393.5L223.01 392L236.18 390L247.18 388.5L259.68 386.5L277.18 388.5L291.76 392L289.18 396.5L279.68 401.5L266 406.5L256.18 410L240.68 414L224.68 415.5L214.18 410L208.68 404L200.18 398.5L208.68 396.5Z" id="aplEW1ivc"></path><path d="M295.68 395.67L285.01 406.33L272.35 419.33L261.35 426.33L252.35 428.67L234.35 430.67L218.01 428.67L210.01 421L205.35 411.67L194.35 400" id="d3kexyHYQ"></path><path d="M297.68 390.33L291.76 387.67L271.35 382.67L255.68 379.67L235.68 382.67L224.68 384.67L213.35 386.5L194.35 396.67" id="a36lzxDBKA"></path><path d="M306.01 379.67L306.01 376L297.68 365.67L284.01 355L255.68 334" id="cuXpkmxLP"></path><path d="M183.01 390L183.01 383.67L186.35 375.33L195.35 360" id="d2eAwHvTOr"></path><path d="M256.68 349.67L251.35 354L237.68 353L229.35 353L226.01 360L220.68 363.33L212.68 359L202.68 359" id="d1eVtkXlRU"></path><path d="M216.01 272.33L215.35 289.67L211.68 306.67L211.68 323.33L210.68 329.67L204.35 337L200.18 347.67" id="a1fkTgI5uf"></path><path d="M251.01 338L248.35 331.67L239.01 328" id="a1yisqzfJb"></path><path d="M307.01 287L297.68 286L283.68 289L269.01 289L256.68 290.67" id="a5QKQahwg"></path><path d="M306.01 284.5L295.68 281L283.01 277L271.68 275L263.68 279.33L256.68 289" id="b1l1eS0I6"></path><path d="M164.68 298.33L170.35 295L175.35 286L182.35 282L190.01 281L201.68 284.5L211.01 292.67" id="dD3CtmRCd"></path><path d="M211.01 293.33L205.35 293.33L197.68 294.33L190.68 297.33L183.01 299.67L171.35 296" id="a5eMLzw8Jd"></path><path d="M183.01 271.33L164.68 277L154.26 284.5L152.68 268.33L172.35 259.67L189.18 256.33L204.68 272.33L183.01 271.33Z" id="dqvjjEauU"></path><path d="M252.68 257.67L284.35 254.67L308.01 258.67L316.35 269.67L301.69 267L275.68 265.33L251.01 275L247.35 263.5L252.68 257.67Z" id="cjliVTHDs"></path><path d="" id="bkwFoMHx5"></path><path d="M303.68 293.33L297.68 296.5L280.85 299.67L262.68 296.5" id="dBmAvcvQV"></path><path d="M168.68 303.5L171.35 307.5L185.68 306L204.68 301" id="aThuLFsWN"></path><path d="M323.92 161.5L337 145.76L337 110.91" id="bv7CqADa"></path><path d="M364.06 198.79L378.47 180.5L369.38 126.06" id="b2zLgmCtWB"></path><path d="M401.2 256.33L378.47 223.03L385.76 188.18" id="b18MFsUKVS"></path><path d="M187.85 126.06L229.68 130.61L295.68 121.52" id="bsc2mISW8"></path><path d="M211.01 142.73L256.68 153.33L306.01 142.73" id="bGOgBPAw8"></path><path d="M154.26 168.48L178.68 180.5L239.01 162.42" id="bklAF7GCN"></path><path d="M281.35 647.27L262.68 601" id="a154vDaaf3"></path><path d="M330.46 635.15L337 607.5" id="arm6sCmPS"></path></defs><g><g><g><g><use xlink:href="#d65ZWCnM07" opacity="1" fill-opacity="0" stroke="#000000" stroke-width="3" stroke-opacity="1"></use></g></g><g><g><use xlink:href="#b11Pb8Jvtb" opacity="1" fill-opacity="0" stroke="#000000" stroke-width="3" stroke-opacity="1"></use></g></g><g><g><use xlink:href="#hKC6J3L0K" opacity="1" fill-opacity="0" stroke="#000000" stroke-width="3" stroke-opacity="1"></use></g></g><g><g><use xlink:href="#dxHKvVTDX" opacity="1" fill-opacity="0" stroke="#000000" stroke-width="3" stroke-opacity="1"></use></g></g><g><g><use xlink:href="#a2nipxv92" opacity="1" fill-opacity="0" stroke="#000000" stroke-width="3" stroke-opacity="1"></use></g></g><g><g><use xlink:href="#haNjwPM8Hi" opacity="1" fill-opacity="0" stroke="#000000" stroke-width="3" stroke-opacity="1"></use></g></g><g><g><use xlink:href="#bLVA6WJzg" opacity="1" fill-opacity="0" stroke="#000000" stroke-width="3" stroke-opacity="1"></use></g></g><g><g><use xlink:href="#e3VIuSt8Ya" opacity="1" fill-opacity="0" stroke="#000000" stroke-width="3" stroke-opacity="1"></use></g></g><g><g><use xlink:href="#b2GwH8cSw9" opacity="1" fill-opacity="0" stroke="#000000" stroke-width="3" stroke-opacity="1"></use></g></g><g><g><use xlink:href="#a43v7nhah0" opacity="1" fill-opacity="0" stroke="#000000" stroke-width="3" stroke-opacity="1"></use></g></g><g><g><use xlink:href="#aZR3vOjdG" opacity="1" fill-opacity="0" stroke="#000000" stroke-width="3" stroke-opacity="1"></use></g></g><g><g><use xlink:href="#eT9BI8JNn" opacity="1" fill-opacity="0" stroke="#000000" stroke-width="3" stroke-opacity="1"></use></g></g><g><g><use xlink:href="#cAXl1QgUp" opacity="1" fill-opacity="0" stroke="#000000" stroke-width="3" stroke-opacity="1"></use></g></g><g><g><use xlink:href="#a1elWRNx7r" opacity="1" fill-opacity="0" stroke="#000000" stroke-width="3" stroke-opacity="1"></use></g></g><g><g><use xlink:href="#a6hnPjrZxd" opacity="1" fill-opacity="0" stroke="#000000" stroke-width="3" stroke-opacity="1"></use></g></g><g><g><use xlink:href="#b5yRkpdW" opacity="1" fill-opacity="0" stroke="#000000" stroke-width="3" stroke-opacity="1"></use></g></g><g><g><use xlink:href="#h1DcTZ80Gx" opacity="1" fill-opacity="0" stroke="#000000" stroke-width="3" stroke-opacity="1"></use></g></g><g><g><use xlink:href="#dbAIv7z2VF" opacity="1" fill-opacity="0" stroke="#000000" stroke-width="3" stroke-opacity="1"></use></g></g><g><g><use xlink:href="#aplEW1ivc" opacity="1" fill-opacity="0" stroke="#000000" stroke-width="3" stroke-opacity="1"></use></g></g><g><g><use xlink:href="#d3kexyHYQ" opacity="1" fill-opacity="0" stroke="#000000" stroke-width="3" stroke-opacity="1"></use></g></g><g><g><use xlink:href="#a36lzxDBKA" opacity="1" fill-opacity="0" stroke="#000000" stroke-width="3" stroke-opacity="1"></use></g></g><g><g><use xlink:href="#cuXpkmxLP" opacity="1" fill-opacity="0" stroke="#000000" stroke-width="1" stroke-opacity="1"></use></g></g><g><g><use xlink:href="#d2eAwHvTOr" opacity="1" fill-opacity="0" stroke="#000000" stroke-width="1" stroke-opacity="1"></use></g></g><g><g><use xlink:href="#d1eVtkXlRU" opacity="1" fill-opacity="0" stroke="#000000" stroke-width="3" stroke-opacity="1"></use></g></g><g><g><use xlink:href="#a1fkTgI5uf" opacity="1" fill-opacity="0" stroke="#000000" stroke-width="3" stroke-opacity="1"></use></g></g><g><g><use xlink:href="#a1yisqzfJb" opacity="1" fill-opacity="0" stroke="#000000" stroke-width="3" stroke-opacity="1"></use></g></g><g><g><use xlink:href="#a5QKQahwg" opacity="1" fill-opacity="0" stroke="#000000" stroke-width="3" stroke-opacity="1"></use></g></g><g><g><use xlink:href="#b1l1eS0I6" opacity="1" fill-opacity="0" stroke="#000000" stroke-width="3" stroke-opacity="1"></use></g></g><g><g><use xlink:href="#dD3CtmRCd" opacity="1" fill-opacity="0" stroke="#000000" stroke-width="3" stroke-opacity="1"></use></g></g><g><g><use xlink:href="#a5eMLzw8Jd" opacity="1" fill-opacity="0" stroke="#000000" stroke-width="3" stroke-opacity="1"></use></g></g><g><g><use xlink:href="#dqvjjEauU" opacity="1" fill-opacity="0" stroke="#000000" stroke-width="3" stroke-opacity="1"></use></g></g><g><g><use xlink:href="#cjliVTHDs" opacity="1" fill-opacity="0" stroke="#000000" stroke-width="3" stroke-opacity="1"></use></g></g><g><g><use xlink:href="#bkwFoMHx5" opacity="1" fill-opacity="0" stroke="#000000" stroke-width="3" stroke-opacity="1"></use></g></g><g><g><use xlink:href="#dBmAvcvQV" opacity="1" fill-opacity="0" stroke="#000000" stroke-width="2" stroke-opacity="1"></use></g></g><g><g><use xlink:href="#aThuLFsWN" opacity="1" fill-opacity="0" stroke="#000000" stroke-width="2" stroke-opacity="1"></use></g></g><g><g><use xlink:href="#bv7CqADa" opacity="1" fill-opacity="0" stroke="#000000" stroke-width="3" stroke-opacity="1"></use></g></g><g><g><use xlink:href="#b2zLgmCtWB" opacity="1" fill-opacity="0" stroke="#000000" stroke-width="3" stroke-opacity="1"></use></g></g><g><g><use xlink:href="#b18MFsUKVS" opacity="1" fill-opacity="0" stroke="#000000" stroke-width="3" stroke-opacity="1"></use></g></g><g><g><use xlink:href="#bsc2mISW8" opacity="1" fill-opacity="0" stroke="#000000" stroke-width="3" stroke-opacity="1"></use></g></g><g><g><use xlink:href="#bGOgBPAw8" opacity="1" fill-opacity="0" stroke="#000000" stroke-width="3" stroke-opacity="1"></use></g></g><g><g><use xlink:href="#bklAF7GCN" opacity="1" fill-opacity="0" stroke="#000000" stroke-width="3" stroke-opacity="1"></use></g></g><g><g><use xlink:href="#a154vDaaf3" opacity="1" fill-opacity="0" stroke="#000000" stroke-width="3" stroke-opacity="1"></use></g></g><g><g><use xlink:href="#arm6sCmPS" opacity="1" fill-opacity="0" stroke="#000000" stroke-width="3" stroke-opacity="1"></use></g></g></g></g></svg>