<?xml version="1.0" encoding="UTF-8" standalone="no"?>
<!DOCTYPE svg PUBLIC "-//W3C//DTD SVG 1.1//EN" "http://www.w3.org/Graphics/SVG/1.1/DTD/svg11.dtd">
<svg version="1.1" xmlns="http://www.w3.org/2000/svg" xmlns:xlink="http://www.w3.org/1999/xlink" preserveAspectRatio="xMidYMid meet" viewBox="0 0 640 640" width="640" height="640"><defs><path d="M334 124.71L352 124.71L370 132.71L391 150.71L406 164.71L406 196.71L416 217.71L419 248.71L419 268.71L416 294.71L412 315.71L412 335.71L403 356.71L388 380.71L375 395.71L349 414.71L334 426.71L313.8 426.71L289 426.71L270 407.71L248 380.71L228 351.71L231 335.71L231 306.71L231 272.71L231 248.71L228 209.71L228 181.71L240 164.71L251 144.71L264 129.71L278 129.71L296 129.71L320 129.71L334 124.71Z" id="a4bh1hHqdO"></path><path d="M420 251.46L425.5 251.46L429.5 244.96L429.5 232.96L432.5 222.96" id="bo1HK28yT"></path><path d="M426.25 305.46L428.5 299.96L432.5 291.21L435 284.46L437 269.96L437 258.96L442.5 247.96L445 237.21L445 226.46L438.5 221.46L432.5 222.96" id="acDYx5GlB"></path><path d="M427.78 308.71L427.78 314.05L427.78 320.05L422.78 324.05L417.45 326.05L415.78 321.71L417.45 314.05L422.78 307.38L427.78 308.71Z" id="fhilhafq8"></path><path d="M413.45 307.38L415.78 304.05L421.78 300.38L425.11 304.05" id="c1C71c8VRC"></path><path d="M417.45 327.05L412.11 328.38" id="bVWuZCeAU"></path><path d="M423.45 307.38L420.78 301.71" id="c3AMlCQxUq"></path><path d="M420.78 310.05L417.45 303.05" id="bsknQRVR8"></path><path d="M417.45 313.38L414.78 306.55" id="d1LP5Ihupj"></path><path d="M415.78 317.71L412.11 313.38" id="b1Hm8hReWG"></path><path d="M416.11 323.05L412.11 320.71" id="h9GKxkxnO"></path><path d="M360.81 221.71L370.81 221.71L379.48 221.71L386.81 223.38L392.81 227.38L396.14 239.71L392.81 235.71L389.48 232.38L381.14 226.05L373.14 226.71L360.81 230.38L348.81 234.38L339.81 235.71L339.81 230.38L346.14 226.05L354.48 223.38L360.81 221.71Z" id="e13aQPUIDQ"></path><path d="M257.48 225.05L249.81 226.71L242.81 230.71L237.48 236.05L238.81 230.71L246.14 224.05L253.14 221.05L265.48 221.05L278.14 221.71L287.81 225.05L293.48 228.05L293.48 233.05L289.14 236.05L282.81 233.05L275.14 229.71" id="cPnlBalEZ"></path><path d="M275.48 229.71L265.48 226.71L256.48 225.05" id="a3GBjiuLe"></path><path d="M278.81 345.38L284.14 346.38L296.14 349.38L304.48 351.05L313.8 353.05L323.5 352.05L338.14 348.05L346.48 345.38L355.81 343.71L362.48 343.71L355.81 348.05L347.48 354.38L339.81 359.71L329.81 365.38L318.48 366.38L311.81 366.38L302.14 363.71L289.14 358.71L278.81 352.05L265.98 345.38L278.81 345.38Z" id="bLpZTdkfL"></path><path d="M275.48 353.38L283.48 361.05L289.14 369.05L295.81 373.71L302.48 378.38L311.48 379.71L318.14 378.38L323.5 378.38L331.14 377.38L339.81 372.71L343.48 366.38L347.48 361.05L354.14 355.05L358.14 350.05L367.98 341.05L358.14 339.38L344.48 339.38L331.14 341.05L324.81 342.71L318.14 345.05L313.8 343.71L307.48 341.05L290.81 341.05L264.48 342.71L275.48 353.38Z" id="e98PCQalU"></path><path d="M346.48 315.38L341.14 316.38L335.81 319.05L328.14 320.71L323.5 324.38L319.14 327.05L314.23 327.05L307.48 324.38L302.48 320.71L293.48 318.05L288.81 319.05" id="a3POzLIgNM"></path><path d="M291.14 300.05L287.48 301.38L282.81 305.38L284.14 313.05" id="a8hlbJ59yt"></path><path d="" id="a2FANYZm6"></path><path d="M302.14 313.05L302.14 310.05L299.48 305.05L295.81 300.05" id="c3NCpD0PRs"></path><path d="M342.14 295.71L338.81 288.05L333.81 275.71L325.14 248.38" id="crbkVTt1"></path><path d="M314.23 298.71L314.23 288.05L313.8 260.71" id="ba8b9AROMr"></path><path d="M380.81 335.38L382.81 330.73L380.81 325.38L375.14 325.38L362.48 325.38" id="dDX4yal5p"></path><path d="M252.48 341.05L251.14 335.38L256.48 331.71L263.48 329.05" id="c1VlBNUl1U"></path><path d="M251.14 366.38L245.81 354.05L242.14 339.38" id="c2iDEGRxrA"></path><path d="M367.98 391.71L372.64 379.71L381.14 366.38L392.48 345.71" id="ac6ZgizvD"></path><path d="M378.81 384.38L389.81 368.71L402.14 343.71" id="l1KO3qlfp6"></path><path d="M244.64 250.84L248.89 247.09L257.31 244.34L263.48 242.84L274.89 244.34L280.64 248.38L285.39 252.09L293.48 257.09L286.14 257.09L279.89 257.09L271.14 258.09L263.48 257.09L255.64 255.59L247.89 253.09L244.64 250.84Z" id="a33abWBeaf"></path><path d="M294.39 254.84L289.64 250.46L284.89 246.09L275.48 242.84L264.48 240.84" id="i9wLXRovo"></path><path d="M339.81 254.84L347.09 251.46L351.34 247.84L358.09 245.09L367.98 245.09L378.81 248.38L386.09 253.59L382.81 254.84L375.84 256.09L366.09 258.84L355.59 258.09L348.09 256.09L337.59 258.09" id="d1OGjITN7"></path><path d="M389.34 251.46L384.09 248.38L377.34 243.84L368.84 241.59L360.09 240.84L352.59 242.84L346.48 247.84L339.09 252.59" id="bDhnUgvDv"></path><path d="M210.53 325.38L200.53 291.21L195.53 254.84L192.53 213.71L203.53 165.71L218.53 134.71L242.14 113.71L269.06 106.71L295.81 110.71L320 118.71" id="by8eq5HU3"></path><path d="M179.53 366.38L158.53 343.71L152.53 293.71L158.53 236.05L188.53 155.71L223.53 99.71L256.27 77.71L295.81 77.71" id="e4tflilexy"></path><path d="M111.53 350.71L122.53 355.05L133.53 352.88L133.53 339.38L136.53 272.05L149.53 218.71L162.53 192.71L173.53 147.71L187.53 120.71L216.53 77.71L244.64 63.71L279.44 50.71L298.98 53.71L316.23 63.71" id="a2mOTqIiaT"></path><path d="M103.53 426.71L114.53 437.71L144.53 446.71L173.53 418.71L173.53 388.71L152.53 364.05L141.53 317.71" id="dbKVngy9FQ"></path><path d="M138.53 512.71L162.53 527.71L192.53 508.71L218.53 464.71L213.88 420.71L198.53 339.38" id="colnHUfDT"></path><path d="M131.53 469.71L159.53 478.71L178.53 455.71L192.53 420.71" id="g1SwWWBktC"></path><path d="M474.53 459.71L479.53 433.55L474.53 413.71L466.53 388.71L466.53 355.05L466.53 313.05L466.53 254.84L469.53 216.05L460.53 180.71L435.63 109.71L406.53 67.71L367.98 50.71L333.64 57.71" id="a10cRZuaBZ"></path><path d="M209.53 327.05L218.53 382.21L231.53 420.71L224.17 471.71L209.53 505.71L185.53 535.71L147.53 530.71L131.53 517.71L117.53 491.71L111.53 474.71L117.53 455.71L98.53 436.71L92.53 403.71L103.53 410.71L121.53 406.71L135.53 396.71L111.53 352.88" id="a2krgEokTa"></path><path d="M305.53 459.71L295.81 469.71L316.23 478.71L339.81 469.71L355.53 446.71L396.14 389.71" id="c3X7Hs90kV"></path><path d="M396.14 412.71L399.53 426.71L380.23 454.71L364.21 478.71L358.53 498.71L317.64 509.71L298.98 481.71" id="cLyLX0dB8"></path><path d="M472.53 449.71L479.53 474.71L472.53 498.71L432.5 518.71L392.48 518.71L367.98 498.71" id="a36bEBfS6"></path><path d="M442.53 263.46L445 211.71L445 184.71L426.25 145.71L406.59 121.71L386.09 103.71L354.53 109.71" id="a2nDw07QaE"></path><path d="M286.98 77.71L313.8 77.71L333.64 100.71" id="aqZXt05tW"></path><path d="M244.64 604.71L237.48 593.71L228 559.71L218.53 535.71L213.88 518.71L224.17 509.71L234.53 500.71L228 481.71L234.53 449.71" id="beqgmFH6i"></path><path d="M317.64 518.71L302.14 543.71L286.98 568.71L264.48 611.21" id="caJYKrp1g"></path><path d="M302.14 604.71L339.81 506.71" id="a27MoylqXQ"></path><path d="M440.53 611.21L449.53 596.71L483.53 518.71L399.77 551.71L386.09 514.71" id="a7Z2S6AsHi"></path><path d="M537.53 455.71L483.53 420.71" id="f143Iz2yHn"></path><path d="M87.56 478.71L111.53 455.71" id="b4speY0ICB"></path><path d="M253.77 426.52C253.77 429.73 251.16 432.33 247.95 432.33C244.75 432.33 242.14 429.73 242.14 426.52C242.14 423.32 244.75 420.71 247.95 420.71C251.16 420.71 253.77 423.32 253.77 426.52Z" id="h3YP1gRRra"></path><path d="M251.14 440.02C251.14 443.23 248.54 445.83 245.33 445.83C242.13 445.83 239.52 443.23 239.52 440.02C239.52 436.82 242.13 434.21 245.33 434.21C248.54 434.21 251.14 436.82 251.14 440.02Z" id="gOUeyuCZ"></path><path d="M244.6 459.17C241.7 460.52 238.24 459.27 236.88 456.36C235.52 453.46 236.78 450 239.68 448.64C242.59 447.28 246.05 448.54 247.41 451.44C248.77 454.35 247.51 457.81 244.6 459.17Z" id="b1UsxUNQsH"></path><path d="M246.64 468.52C246.64 471.73 244.04 474.33 240.83 474.33C237.63 474.33 235.02 471.73 235.02 468.52C235.02 465.32 237.63 462.71 240.83 462.71C244.04 462.71 246.64 465.32 246.64 468.52Z" id="aRtH46Fva"></path><path d="M246.64 484.21C246.64 487.42 244.04 490.02 240.83 490.02C237.63 490.02 235.02 487.42 235.02 484.21C235.02 481.01 237.63 478.4 240.83 478.4C244.04 478.4 246.64 481.01 246.64 484.21Z" id="faMcGejtU"></path><path d="M246.64 498.02C246.64 501.23 244.04 503.83 240.83 503.83C237.63 503.83 235.02 501.23 235.02 498.02C235.02 494.82 237.63 492.21 240.83 492.21C244.04 492.21 246.64 494.82 246.64 498.02Z" id="a3YeB0DV0I"></path><path d="M243.15 512.9C243.15 516.11 240.55 518.71 237.34 518.71C234.13 518.71 231.53 516.11 231.53 512.9C231.53 509.69 234.13 507.09 237.34 507.09C240.55 507.09 243.15 509.69 243.15 512.9Z" id="a18TvJSCzJ"></path><path d="M243.15 529.9C243.15 533.11 240.55 535.71 237.34 535.71C234.13 535.71 231.53 533.11 231.53 529.9C231.53 526.69 234.13 524.09 237.34 524.09C240.55 524.09 243.15 526.69 243.15 529.9Z" id="au7TwKfpI"></path><path d="M243.15 545.52C243.15 548.73 240.55 551.33 237.34 551.33C234.13 551.33 231.53 548.73 231.53 545.52C231.53 542.32 234.13 539.71 237.34 539.71C240.55 539.71 243.15 542.32 243.15 545.52Z" id="a71iwkfTy"></path><path d="M245.33 559.15C245.33 562.36 242.73 564.96 239.52 564.96C236.32 564.96 233.71 562.36 233.71 559.15C233.71 555.94 236.32 553.34 239.52 553.34C242.73 553.34 245.33 555.94 245.33 559.15Z" id="g3JJmSonO1"></path><path d="M246.64 574.02C246.64 577.23 244.04 579.83 240.83 579.83C237.63 579.83 235.02 577.23 235.02 574.02C235.02 570.82 237.63 568.21 240.83 568.21C244.04 568.21 246.64 570.82 246.64 574.02Z" id="a3sEUPOupN"></path><path d="M250.45 585.64C250.45 588.85 247.85 591.46 244.64 591.46C241.44 591.46 238.83 588.85 238.83 585.64C238.83 582.44 241.44 579.83 244.64 579.83C247.85 579.83 250.45 582.44 250.45 585.64Z" id="bNfHsnZqw"></path><path d="M259.58 593.52C259.58 596.73 256.97 599.33 253.77 599.33C250.56 599.33 247.95 596.73 247.95 593.52C247.95 590.32 250.56 587.71 253.77 587.71C256.97 587.71 259.58 590.32 259.58 593.52Z" id="a1ewmXMTKE"></path><path d="M271.79 595.02C271.79 598.23 269.18 600.83 265.98 600.83C262.77 600.83 260.17 598.23 260.17 595.02C260.17 591.82 262.77 589.21 265.98 589.21C269.18 589.21 271.79 591.82 271.79 595.02Z" id="a25OD9rEux"></path></defs><g><g><g><g><use xlink:href="#a4bh1hHqdO" opacity="1" fill-opacity="0" stroke="#000000" stroke-width="3" stroke-opacity="1"></use></g></g><g><g><use xlink:href="#bo1HK28yT" opacity="1" fill-opacity="0" stroke="#000000" stroke-width="3" stroke-opacity="1"></use></g></g><g><g><use xlink:href="#acDYx5GlB" opacity="1" fill-opacity="0" stroke="#000000" stroke-width="3" stroke-opacity="1"></use></g></g><g><g><use xlink:href="#fhilhafq8" opacity="1" fill-opacity="0" stroke="#000000" stroke-width="3" stroke-opacity="1"></use></g></g><g><g><use xlink:href="#c1C71c8VRC" opacity="1" fill-opacity="0" stroke="#000000" stroke-width="3" stroke-opacity="1"></use></g></g><g><g><use xlink:href="#bVWuZCeAU" opacity="1" fill-opacity="0" stroke="#000000" stroke-width="3" stroke-opacity="1"></use></g></g><g><g><use xlink:href="#c3AMlCQxUq" opacity="1" fill-opacity="0" stroke="#000000" stroke-width="3" stroke-opacity="1"></use></g></g><g><g><use xlink:href="#bsknQRVR8" opacity="1" fill-opacity="0" stroke="#000000" stroke-width="3" stroke-opacity="1"></use></g></g><g><g><use xlink:href="#d1LP5Ihupj" opacity="1" fill-opacity="0" stroke="#000000" stroke-width="3" stroke-opacity="1"></use></g></g><g><g><use xlink:href="#b1Hm8hReWG" opacity="1" fill-opacity="0" stroke="#000000" stroke-width="3" stroke-opacity="1"></use></g></g><g><g><use xlink:href="#h9GKxkxnO" opacity="1" fill-opacity="0" stroke="#000000" stroke-width="3" stroke-opacity="1"></use></g></g><g><g><use xlink:href="#e13aQPUIDQ" opacity="1" fill-opacity="0" stroke="#000000" stroke-width="3" stroke-opacity="1"></use></g></g><g><g><use xlink:href="#cPnlBalEZ" opacity="1" fill-opacity="0" stroke="#000000" stroke-width="3" stroke-opacity="1"></use></g></g><g><g><use xlink:href="#a3GBjiuLe" opacity="1" fill-opacity="0" stroke="#000000" stroke-width="3" stroke-opacity="1"></use></g></g><g><g><use xlink:href="#bLpZTdkfL" opacity="1" fill-opacity="0" stroke="#000000" stroke-width="3" stroke-opacity="1"></use></g></g><g><g><use xlink:href="#e98PCQalU" opacity="1" fill-opacity="0" stroke="#000000" stroke-width="3" stroke-opacity="1"></use></g></g><g><g><use xlink:href="#a3POzLIgNM" opacity="1" fill-opacity="0" stroke="#000000" stroke-width="3" stroke-opacity="1"></use></g></g><g><g><use xlink:href="#a8hlbJ59yt" opacity="1" fill-opacity="0" stroke="#000000" stroke-width="3" stroke-opacity="1"></use></g></g><g><g><use xlink:href="#a2FANYZm6" opacity="1" fill-opacity="0" stroke="#000000" stroke-width="3" stroke-opacity="1"></use></g></g><g><g><use xlink:href="#c3NCpD0PRs" opacity="1" fill-opacity="0" stroke="#000000" stroke-width="2" stroke-opacity="1"></use></g></g><g><g><use xlink:href="#crbkVTt1" opacity="1" fill-opacity="0" stroke="#000000" stroke-width="3" stroke-opacity="1"></use></g></g><g><g><use xlink:href="#ba8b9AROMr" opacity="1" fill-opacity="0" stroke="#000000" stroke-width="3" stroke-opacity="1"></use></g></g><g><g><use xlink:href="#dDX4yal5p" opacity="1" fill-opacity="0" stroke="#000000" stroke-width="2" stroke-opacity="1"></use></g></g><g><g><use xlink:href="#c1VlBNUl1U" opacity="1" fill-opacity="0" stroke="#000000" stroke-width="2" stroke-opacity="1"></use></g></g><g><g><use xlink:href="#c2iDEGRxrA" opacity="1" fill-opacity="0" stroke="#000000" stroke-width="2" stroke-opacity="1"></use></g></g><g><g><use xlink:href="#ac6ZgizvD" opacity="1" fill-opacity="0" stroke="#000000" stroke-width="2" stroke-opacity="1"></use></g></g><g><g><use xlink:href="#l1KO3qlfp6" opacity="1" fill-opacity="0" stroke="#000000" stroke-width="2" stroke-opacity="1"></use></g></g><g><g><use xlink:href="#a33abWBeaf" opacity="1" fill-opacity="0" stroke="#000000" stroke-width="3" stroke-opacity="1"></use></g></g><g><g><use xlink:href="#i9wLXRovo" opacity="1" fill-opacity="0" stroke="#000000" stroke-width="3" stroke-opacity="1"></use></g></g><g><g><use xlink:href="#d1OGjITN7" opacity="1" fill-opacity="0" stroke="#000000" stroke-width="3" stroke-opacity="1"></use></g></g><g><g><use xlink:href="#bDhnUgvDv" opacity="1" fill-opacity="0" stroke="#000000" stroke-width="3" stroke-opacity="1"></use></g></g><g><g><use xlink:href="#by8eq5HU3" opacity="1" fill-opacity="0" stroke="#000000" stroke-width="3" stroke-opacity="1"></use></g></g><g><g><use xlink:href="#e4tflilexy" opacity="1" fill-opacity="0" stroke="#000000" stroke-width="3" stroke-opacity="1"></use></g></g><g><g><use xlink:href="#a2mOTqIiaT" opacity="1" fill-opacity="0" stroke="#000000" stroke-width="3" stroke-opacity="1"></use></g></g><g><g><use xlink:href="#dbKVngy9FQ" opacity="1" fill-opacity="0" stroke="#000000" stroke-width="3" stroke-opacity="1"></use></g></g><g><g><use xlink:href="#colnHUfDT" opacity="1" fill-opacity="0" stroke="#000000" stroke-width="3" stroke-opacity="1"></use></g></g><g><g><use xlink:href="#g1SwWWBktC" opacity="1" fill-opacity="0" stroke="#000000" stroke-width="3" stroke-opacity="1"></use></g></g><g><g><use xlink:href="#a10cRZuaBZ" opacity="1" fill-opacity="0" stroke="#000000" stroke-width="3" stroke-opacity="1"></use></g></g><g><g><use xlink:href="#a2krgEokTa" opacity="1" fill-opacity="0" stroke="#000000" stroke-width="3" stroke-opacity="1"></use></g></g><g><g><use xlink:href="#c3X7Hs90kV" opacity="1" fill-opacity="0" stroke="#000000" stroke-width="3" stroke-opacity="1"></use></g></g><g><g><use xlink:href="#cLyLX0dB8" opacity="1" fill-opacity="0" stroke="#000000" stroke-width="3" stroke-opacity="1"></use></g></g><g><g><use xlink:href="#a36bEBfS6" opacity="1" fill-opacity="0" stroke="#000000" stroke-width="3" stroke-opacity="1"></use></g></g><g><g><use xlink:href="#a2nDw07QaE" opacity="1" fill-opacity="0" stroke="#000000" stroke-width="3" stroke-opacity="1"></use></g></g><g><g><use xlink:href="#aqZXt05tW" opacity="1" fill-opacity="0" stroke="#000000" stroke-width="3" stroke-opacity="1"></use></g></g><g><g><use xlink:href="#beqgmFH6i" opacity="1" fill-opacity="0" stroke="#000000" stroke-width="3" stroke-opacity="1"></use></g></g><g><g><use xlink:href="#caJYKrp1g" opacity="1" fill-opacity="0" stroke="#000000" stroke-width="3" stroke-opacity="1"></use></g></g><g><g><use xlink:href="#a27MoylqXQ" opacity="1" fill-opacity="0" stroke="#000000" stroke-width="3" stroke-opacity="1"></use></g></g><g><g><use xlink:href="#a7Z2S6AsHi" opacity="1" fill-opacity="0" stroke="#000000" stroke-width="3" stroke-opacity="1"></use></g></g><g><g><use xlink:href="#f143Iz2yHn" opacity="1" fill-opacity="0" stroke="#000000" stroke-width="3" stroke-opacity="1"></use></g></g><g><g><use xlink:href="#b4speY0ICB" opacity="1" fill-opacity="0" stroke="#000000" stroke-width="3" stroke-opacity="1"></use></g></g><g><g><filter id="shadow3619955" x="233.14" y="411.71" width="30.62" height="30.62" filterUnits="userSpaceOnUse" primitiveUnits="userSpaceOnUse"><feFlood></feFlood><feComposite in2="SourceAlpha" operator="in"></feComposite><feGaussianBlur stdDeviation="1"></feGaussianBlur><feOffset dx="1" dy="1" result="afterOffset"></feOffset><feFlood flood-color="#000000" flood-opacity="0.5"></feFlood><feComposite in2="afterOffset" operator="in"></feComposite><feMorphology operator="dilate" radius="1"></feMorphology><feComposite in2="SourceAlpha" operator="out"></feComposite></filter><path d="M253.77 426.52C253.77 429.73 251.16 432.33 247.95 432.33C244.75 432.33 242.14 429.73 242.14 426.52C242.14 423.32 244.75 420.71 247.95 420.71C251.16 420.71 253.77 423.32 253.77 426.52Z" id="c1A40fLlka" fill="white" fill-opacity="1" filter="url(#shadow3619955)"></path></g><use xlink:href="#h3YP1gRRra" opacity="1" fill="#6fc753" fill-opacity="0"></use><g><use xlink:href="#h3YP1gRRra" opacity="1" fill-opacity="0" stroke="#809afe" stroke-width="1" stroke-opacity="1"></use></g></g><g><g><filter id="shadow6910048" x="230.52" y="425.21" width="30.62" height="30.62" filterUnits="userSpaceOnUse" primitiveUnits="userSpaceOnUse"><feFlood></feFlood><feComposite in2="SourceAlpha" operator="in"></feComposite><feGaussianBlur stdDeviation="1"></feGaussianBlur><feOffset dx="1" dy="1" result="afterOffset"></feOffset><feFlood flood-color="#000000" flood-opacity="0.5"></feFlood><feComposite in2="afterOffset" operator="in"></feComposite><feMorphology operator="dilate" radius="1"></feMorphology><feComposite in2="SourceAlpha" operator="out"></feComposite></filter><path d="M251.14 440.02C251.14 443.23 248.54 445.83 245.33 445.83C242.13 445.83 239.52 443.23 239.52 440.02C239.52 436.82 242.13 434.21 245.33 434.21C248.54 434.21 251.14 436.82 251.14 440.02Z" id="b19QDRw3HX" fill="white" fill-opacity="1" filter="url(#shadow6910048)"></path></g><use xlink:href="#gOUeyuCZ" opacity="1" fill="#6fc753" fill-opacity="0"></use><g><use xlink:href="#gOUeyuCZ" opacity="1" fill-opacity="0" stroke="#000000" stroke-width="1" stroke-opacity="1"></use></g></g><g><g><filter id="shadow7745909" x="227.33" y="439.09" width="30.62" height="30.62" filterUnits="userSpaceOnUse" primitiveUnits="userSpaceOnUse"><feFlood></feFlood><feComposite in2="SourceAlpha" operator="in"></feComposite><feGaussianBlur stdDeviation="1"></feGaussianBlur><feOffset dx="1" dy="1" result="afterOffset"></feOffset><feFlood flood-color="#000000" flood-opacity="0.5"></feFlood><feComposite in2="afterOffset" operator="in"></feComposite><feMorphology operator="dilate" radius="1"></feMorphology><feComposite in2="SourceAlpha" operator="out"></feComposite></filter><path d="M244.6 459.17C241.7 460.52 238.24 459.27 236.88 456.36C235.52 453.46 236.78 450 239.68 448.64C242.59 447.28 246.05 448.54 247.41 451.44C248.77 454.35 247.51 457.81 244.6 459.17Z" id="c3AJ8MVUP" fill="white" fill-opacity="1" filter="url(#shadow7745909)"></path></g><use xlink:href="#b1UsxUNQsH" opacity="1" fill="#6fc753" fill-opacity="0"></use><g><use xlink:href="#b1UsxUNQsH" opacity="1" fill-opacity="0" stroke="#000000" stroke-width="1" stroke-opacity="1"></use></g></g><g><g><filter id="shadow13554313" x="226.02" y="453.71" width="30.62" height="30.62" filterUnits="userSpaceOnUse" primitiveUnits="userSpaceOnUse"><feFlood></feFlood><feComposite in2="SourceAlpha" operator="in"></feComposite><feGaussianBlur stdDeviation="1"></feGaussianBlur><feOffset dx="1" dy="1" result="afterOffset"></feOffset><feFlood flood-color="#000000" flood-opacity="0.5"></feFlood><feComposite in2="afterOffset" operator="in"></feComposite><feMorphology operator="dilate" radius="1"></feMorphology><feComposite in2="SourceAlpha" operator="out"></feComposite></filter><path d="M246.64 468.52C246.64 471.73 244.04 474.33 240.83 474.33C237.63 474.33 235.02 471.73 235.02 468.52C235.02 465.32 237.63 462.71 240.83 462.71C244.04 462.71 246.64 465.32 246.64 468.52Z" id="bRsY37t9f" fill="white" fill-opacity="1" filter="url(#shadow13554313)"></path></g><use xlink:href="#aRtH46Fva" opacity="1" fill="#6fc753" fill-opacity="0"></use><g><use xlink:href="#aRtH46Fva" opacity="1" fill-opacity="0" stroke="#000000" stroke-width="1" stroke-opacity="1"></use></g></g><g><g><filter id="shadow15043815" x="226.02" y="469.4" width="30.62" height="30.62" filterUnits="userSpaceOnUse" primitiveUnits="userSpaceOnUse"><feFlood></feFlood><feComposite in2="SourceAlpha" operator="in"></feComposite><feGaussianBlur stdDeviation="1"></feGaussianBlur><feOffset dx="1" dy="1" result="afterOffset"></feOffset><feFlood flood-color="#000000" flood-opacity="0.5"></feFlood><feComposite in2="afterOffset" operator="in"></feComposite><feMorphology operator="dilate" radius="1"></feMorphology><feComposite in2="SourceAlpha" operator="out"></feComposite></filter><path d="M246.64 484.21C246.64 487.42 244.04 490.02 240.83 490.02C237.63 490.02 235.02 487.42 235.02 484.21C235.02 481.01 237.63 478.4 240.83 478.4C244.04 478.4 246.64 481.01 246.64 484.21Z" id="a4Qk2oAVN" fill="white" fill-opacity="1" filter="url(#shadow15043815)"></path></g><use xlink:href="#faMcGejtU" opacity="1" fill="#6fc753" fill-opacity="0"></use><g><use xlink:href="#faMcGejtU" opacity="1" fill-opacity="0" stroke="#000000" stroke-width="1" stroke-opacity="1"></use></g></g><g><g><filter id="shadow4624208" x="226.02" y="483.21" width="30.62" height="30.62" filterUnits="userSpaceOnUse" primitiveUnits="userSpaceOnUse"><feFlood></feFlood><feComposite in2="SourceAlpha" operator="in"></feComposite><feGaussianBlur stdDeviation="1"></feGaussianBlur><feOffset dx="1" dy="1" result="afterOffset"></feOffset><feFlood flood-color="#000000" flood-opacity="0.5"></feFlood><feComposite in2="afterOffset" operator="in"></feComposite><feMorphology operator="dilate" radius="1"></feMorphology><feComposite in2="SourceAlpha" operator="out"></feComposite></filter><path d="M246.64 498.02C246.64 501.23 244.04 503.83 240.83 503.83C237.63 503.83 235.02 501.23 235.02 498.02C235.02 494.82 237.63 492.21 240.83 492.21C244.04 492.21 246.64 494.82 246.64 498.02Z" id="bMHEPz6OT" fill="white" fill-opacity="1" filter="url(#shadow4624208)"></path></g><use xlink:href="#a3YeB0DV0I" opacity="1" fill="#6fc753" fill-opacity="0"></use><g><use xlink:href="#a3YeB0DV0I" opacity="1" fill-opacity="0" stroke="#000000" stroke-width="1" stroke-opacity="1"></use></g></g><g><g><filter id="shadow12667957" x="222.53" y="498.09" width="30.62" height="30.62" filterUnits="userSpaceOnUse" primitiveUnits="userSpaceOnUse"><feFlood></feFlood><feComposite in2="SourceAlpha" operator="in"></feComposite><feGaussianBlur stdDeviation="1"></feGaussianBlur><feOffset dx="1" dy="1" result="afterOffset"></feOffset><feFlood flood-color="#000000" flood-opacity="0.5"></feFlood><feComposite in2="afterOffset" operator="in"></feComposite><feMorphology operator="dilate" radius="1"></feMorphology><feComposite in2="SourceAlpha" operator="out"></feComposite></filter><path d="M243.15 512.9C243.15 516.11 240.55 518.71 237.34 518.71C234.13 518.71 231.53 516.11 231.53 512.9C231.53 509.69 234.13 507.09 237.34 507.09C240.55 507.09 243.15 509.69 243.15 512.9Z" id="dmkkbs2Rj" fill="white" fill-opacity="1" filter="url(#shadow12667957)"></path></g><use xlink:href="#a18TvJSCzJ" opacity="1" fill="#6fc753" fill-opacity="0"></use><g><use xlink:href="#a18TvJSCzJ" opacity="1" fill-opacity="0" stroke="#000000" stroke-width="1" stroke-opacity="1"></use></g></g><g><g><filter id="shadow3233326" x="222.53" y="515.09" width="30.62" height="30.62" filterUnits="userSpaceOnUse" primitiveUnits="userSpaceOnUse"><feFlood></feFlood><feComposite in2="SourceAlpha" operator="in"></feComposite><feGaussianBlur stdDeviation="1"></feGaussianBlur><feOffset dx="1" dy="1" result="afterOffset"></feOffset><feFlood flood-color="#000000" flood-opacity="0.5"></feFlood><feComposite in2="afterOffset" operator="in"></feComposite><feMorphology operator="dilate" radius="1"></feMorphology><feComposite in2="SourceAlpha" operator="out"></feComposite></filter><path d="M243.15 529.9C243.15 533.11 240.55 535.71 237.34 535.71C234.13 535.71 231.53 533.11 231.53 529.9C231.53 526.69 234.13 524.09 237.34 524.09C240.55 524.09 243.15 526.69 243.15 529.9Z" id="a5LdN3Zl" fill="white" fill-opacity="1" filter="url(#shadow3233326)"></path></g><use xlink:href="#au7TwKfpI" opacity="1" fill="#6fc753" fill-opacity="0"></use><g><use xlink:href="#au7TwKfpI" opacity="1" fill-opacity="0" stroke="#000000" stroke-width="1" stroke-opacity="1"></use></g></g><g><g><filter id="shadow6945246" x="222.53" y="530.71" width="30.62" height="30.62" filterUnits="userSpaceOnUse" primitiveUnits="userSpaceOnUse"><feFlood></feFlood><feComposite in2="SourceAlpha" operator="in"></feComposite><feGaussianBlur stdDeviation="1"></feGaussianBlur><feOffset dx="1" dy="1" result="afterOffset"></feOffset><feFlood flood-color="#000000" flood-opacity="0.5"></feFlood><feComposite in2="afterOffset" operator="in"></feComposite><feMorphology operator="dilate" radius="1"></feMorphology><feComposite in2="SourceAlpha" operator="out"></feComposite></filter><path d="M243.15 545.52C243.15 548.73 240.55 551.33 237.34 551.33C234.13 551.33 231.53 548.73 231.53 545.52C231.53 542.32 234.13 539.71 237.34 539.71C240.55 539.71 243.15 542.32 243.15 545.52Z" id="ac5TblhxE" fill="white" fill-opacity="1" filter="url(#shadow6945246)"></path></g><use xlink:href="#a71iwkfTy" opacity="1" fill="#6fc753" fill-opacity="0"></use><g><use xlink:href="#a71iwkfTy" opacity="1" fill-opacity="0" stroke="#000000" stroke-width="1" stroke-opacity="1"></use></g></g><g><g><filter id="shadow12084501" x="224.71" y="544.34" width="30.62" height="30.62" filterUnits="userSpaceOnUse" primitiveUnits="userSpaceOnUse"><feFlood></feFlood><feComposite in2="SourceAlpha" operator="in"></feComposite><feGaussianBlur stdDeviation="1"></feGaussianBlur><feOffset dx="1" dy="1" result="afterOffset"></feOffset><feFlood flood-color="#000000" flood-opacity="0.5"></feFlood><feComposite in2="afterOffset" operator="in"></feComposite><feMorphology operator="dilate" radius="1"></feMorphology><feComposite in2="SourceAlpha" operator="out"></feComposite></filter><path d="M245.33 559.15C245.33 562.36 242.73 564.96 239.52 564.96C236.32 564.96 233.71 562.36 233.71 559.15C233.71 555.94 236.32 553.34 239.52 553.34C242.73 553.34 245.33 555.94 245.33 559.15Z" id="a1s52o3n2S" fill="white" fill-opacity="1" filter="url(#shadow12084501)"></path></g><use xlink:href="#g3JJmSonO1" opacity="1" fill="#6fc753" fill-opacity="0"></use><g><use xlink:href="#g3JJmSonO1" opacity="1" fill-opacity="0" stroke="#000000" stroke-width="1" stroke-opacity="1"></use></g></g><g><g><filter id="shadow1268868" x="226.02" y="559.21" width="30.62" height="30.62" filterUnits="userSpaceOnUse" primitiveUnits="userSpaceOnUse"><feFlood></feFlood><feComposite in2="SourceAlpha" operator="in"></feComposite><feGaussianBlur stdDeviation="1"></feGaussianBlur><feOffset dx="1" dy="1" result="afterOffset"></feOffset><feFlood flood-color="#000000" flood-opacity="0.5"></feFlood><feComposite in2="afterOffset" operator="in"></feComposite><feMorphology operator="dilate" radius="1"></feMorphology><feComposite in2="SourceAlpha" operator="out"></feComposite></filter><path d="M246.64 574.02C246.64 577.23 244.04 579.83 240.83 579.83C237.63 579.83 235.02 577.23 235.02 574.02C235.02 570.82 237.63 568.21 240.83 568.21C244.04 568.21 246.64 570.82 246.64 574.02Z" id="m3MckKM225" fill="white" fill-opacity="1" filter="url(#shadow1268868)"></path></g><use xlink:href="#a3sEUPOupN" opacity="1" fill="#6fc753" fill-opacity="0"></use><g><use xlink:href="#a3sEUPOupN" opacity="1" fill-opacity="0" stroke="#000000" stroke-width="1" stroke-opacity="1"></use></g></g><g><g><filter id="shadow14691540" x="229.83" y="570.83" width="30.62" height="30.62" filterUnits="userSpaceOnUse" primitiveUnits="userSpaceOnUse"><feFlood></feFlood><feComposite in2="SourceAlpha" operator="in"></feComposite><feGaussianBlur stdDeviation="1"></feGaussianBlur><feOffset dx="1" dy="1" result="afterOffset"></feOffset><feFlood flood-color="#000000" flood-opacity="0.5"></feFlood><feComposite in2="afterOffset" operator="in"></feComposite><feMorphology operator="dilate" radius="1"></feMorphology><feComposite in2="SourceAlpha" operator="out"></feComposite></filter><path d="M250.45 585.64C250.45 588.85 247.85 591.46 244.64 591.46C241.44 591.46 238.83 588.85 238.83 585.64C238.83 582.44 241.44 579.83 244.64 579.83C247.85 579.83 250.45 582.44 250.45 585.64Z" id="bjEmZuY7y" fill="white" fill-opacity="1" filter="url(#shadow14691540)"></path></g><use xlink:href="#bNfHsnZqw" opacity="1" fill="#6fc753" fill-opacity="0"></use><g><use xlink:href="#bNfHsnZqw" opacity="1" fill-opacity="0" stroke="#000000" stroke-width="1" stroke-opacity="1"></use></g></g><g><g><filter id="shadow2930518" x="238.95" y="578.71" width="30.62" height="30.62" filterUnits="userSpaceOnUse" primitiveUnits="userSpaceOnUse"><feFlood></feFlood><feComposite in2="SourceAlpha" operator="in"></feComposite><feGaussianBlur stdDeviation="1"></feGaussianBlur><feOffset dx="1" dy="1" result="afterOffset"></feOffset><feFlood flood-color="#000000" flood-opacity="0.5"></feFlood><feComposite in2="afterOffset" operator="in"></feComposite><feMorphology operator="dilate" radius="1"></feMorphology><feComposite in2="SourceAlpha" operator="out"></feComposite></filter><path d="M259.58 593.52C259.58 596.73 256.97 599.33 253.77 599.33C250.56 599.33 247.95 596.73 247.95 593.52C247.95 590.32 250.56 587.71 253.77 587.71C256.97 587.71 259.58 590.32 259.58 593.52Z" id="acKPMVdB2" fill="white" fill-opacity="1" filter="url(#shadow2930518)"></path></g><use xlink:href="#a1ewmXMTKE" opacity="1" fill="#6fc753" fill-opacity="0"></use><g><use xlink:href="#a1ewmXMTKE" opacity="1" fill-opacity="0" stroke="#000000" stroke-width="1" stroke-opacity="1"></use></g></g><g><g><filter id="shadow9481720" x="251.17" y="580.21" width="30.62" height="30.62" filterUnits="userSpaceOnUse" primitiveUnits="userSpaceOnUse"><feFlood></feFlood><feComposite in2="SourceAlpha" operator="in"></feComposite><feGaussianBlur stdDeviation="1"></feGaussianBlur><feOffset dx="1" dy="1" result="afterOffset"></feOffset><feFlood flood-color="#000000" flood-opacity="0.5"></feFlood><feComposite in2="afterOffset" operator="in"></feComposite><feMorphology operator="dilate" radius="1"></feMorphology><feComposite in2="SourceAlpha" operator="out"></feComposite></filter><path d="M271.79 595.02C271.79 598.23 269.18 600.83 265.98 600.83C262.77 600.83 260.17 598.23 260.17 595.02C260.17 591.82 262.77 589.21 265.98 589.21C269.18 589.21 271.79 591.82 271.79 595.02Z" id="d8wdive5a" fill="white" fill-opacity="1" filter="url(#shadow9481720)"></path></g><use xlink:href="#a25OD9rEux" opacity="1" fill="#6fc753" fill-opacity="0"></use><g><use xlink:href="#a25OD9rEux" opacity="1" fill-opacity="0" stroke="#000000" stroke-width="1" stroke-opacity="1"></use></g></g></g></g></svg>