<?xml version="1.0" encoding="UTF-8" standalone="no"?>
<!DOCTYPE svg PUBLIC "-//W3C//DTD SVG 1.1//EN" "http://www.w3.org/Graphics/SVG/1.1/DTD/svg11.dtd">
<svg version="1.1" xmlns="http://www.w3.org/2000/svg" xmlns:xlink="http://www.w3.org/1999/xlink" preserveAspectRatio="xMidYMid meet" viewBox="0 0 640 640" width="640" height="640"><defs><path d="M283 149.5L318 145.5L366 140.5L409 154.5L419 174.5L409 215.5L424 238.5L427 281.5L427 316.5L424 363.5L416 397.5L394 428.5L359 451.5L314 462.5L262 455.5L217 422.5L196 392.5L187 355.5L184 290.5" id="c11Nk4s1tL"></path><path d="M211 153.5L203 157.5L211 202.5L189 232.5L189 292.5L180 285.5" id="cdh0Ntdlz"></path><path d="M214 153.5L240 160.5L279 140.5L328 135.5" id="e2MsEZBs4p"></path><path d="M231 140.5L271 130.5L341 117.5" id="b1cBaV9GDs"></path><path d="M177 282.5L169 262.5L158 254.5L144 234.5L147 202.5L155 150.5L177 104.5L204 76.5L246 57.5L314 53.5L369 63.5L416 93.5" id="el5WvrXGB"></path><path d="M187 354.5L173 343.5L165 326.5L153 305.5L144 275.5L149 260.5L161 260.5" id="a1q1PR2d9b"></path><path d="M416 93.5L431 104.5L446 122.5L465 153.5L468 178.5L468 219.5L458 265.5L441 272.5L434 301.5L427 292.5" id="b2uYharQkc"></path><path d="M427 363.5L438 347.5L448 330.5L457 317.5L463 285.5L457 269.5L442 275.5" id="b3Tym32yye"></path><path d="M260 363.5L272 363.5L291.5 365.25L305.5 366.75L320 366.75L340.5 365.25L370.5 363.5L366 366.75L352.5 374.25L340.5 379.25L326 381.25L309.5 386.75L300.5 386.75L288.52 381.25L269.5 376.75L251 361.75L260 363.5Z" id="g2jDZ8p3qA"></path><path d="M374 363.5L366.5 370.75L345 381.75L331.5 391.75L317.5 396.25L303.5 398.25L280 394.75L266.5 381.75L248.5 363.5" id="b18p2ZkCOz"></path><path d="M370.5 361.75L348 361.75L324 359.25L305.5 361.75L288.52 359.25L272 359.25L248.5 356.75" id="aBBmu2AhB"></path><path d="M234.5 372.75L231.5 359.25L234.5 346.25L243.5 338.75L251 323.25L265.5 313.75" id="caCQVVexru"></path><path d="M375.5 372.75L381.5 356.75L377.5 346.25L359.5 326.75" id="o4epNlZsQy"></path><path d="M302.5 329.75L299 323.75L290 323.75L281.5 326.75" id="bHjYtMLIP"></path><path d="M334.5 326.75L334.5 323.75L329 321.75L321.5 323.75L317 329.75" id="c1W2SuT2TX"></path><path d="M298.5 255.75L298.5 269.5L298.5 288.75L294 298.75L287.5 302.75L280 307.5L276.5 317.75" id="d1jHiBWQ8G"></path><path d="M331.5 311.75L328.5 301.5L318.5 290.25L317 264.25" id="b3nuTjzjT"></path><path d="M342.5 321.75L344 313.75L337.5 304.75" id="e3yaN80Ton"></path><path d="M278 260.5L268.5 251.25L260.5 249.25L248.5 249.25L235.5 254.25L223.5 264.25" id="a2J6j5Omkz"></path><path d="M278 260.5L265.5 260.5L248.5 262.25L231.5 259.25" id="d6bmqCKJfO"></path><path d="M398 266.75L393 264.25L384.5 256.75L366.5 250.75L352 250.75L347 255.75L334.5 264.25" id="b1YF5eQzg"></path><path d="M390.5 264.25L386 264.25L376.5 266.75L366.25 266.75L353 264.25L337.5 264.25" id="i1REUKZcNa"></path><path d="M273 242.25L265.5 240.75L250.75 238.25L233 240.75L211 250.75L213.5 246.25L223.5 236.25L239.5 228.75L262 231.75L285.5 238.25L288.52 246.25L273 242.25Z" id="a7oce03E8"></path><path d="M362 230.25L379.5 228.75L390.5 234.75L407.5 246.75L400 246.75L386 239.75L370.5 239.75L352 241.75L328.5 246.75L331.5 234.75L362 230.25Z" id="aCctPByHp"></path><path d="M233 266.75L245 270.75L258.5 270.75L278 266.75" id="c2awNwjzhs"></path><path d="M390.5 270.75L378.5 278.75L361.5 277.25L340.75 270.75" id="d6NmJ6HsSq"></path><path d="M320 418.25L302.5 418.25L285 416.75" id="c3QsXa0qeU"></path><path d="M328.5 447.75L357 431.25L379.5 400.25" id="h1miVHntq2"></path><path d="M281.5 449.25L265.5 440.25L242.5 407.25" id="a6Wsr7IpPa"></path><path d="M211 462.5L207 412.5" id="c3wxt15JCq"></path><path d="M393 482.5L398 424" id="dcegSQoCU"></path><path d="M184 506.5L204 556.5L242.5 607.5L254.75 583.5L287.5 545.5L255.5 521.5L223.5 486.5L207 447.75L184 506.5Z" id="cYfhayTQh"></path><path d="M393 482.5L324.25 548.5" id="a7D48AAYy"></path><path d="M398 453.25L416 491.5L421 533.5L407.5 589.5L390.5 615.5L366.25 589.5L324.25 548.5" id="a1hoTgBair"></path><path d="M5 573.5L26 562.5L73 534.37L154 504.5L192 487.5" id="bw1aXvTbx"></path><path d="M635 594.5L606 573.5L557 561.5L505 539.5L450 519.5L421 497.5" id="b3oSC0hZs"></path><path d="M341 561.5L322 553.5L280 561.5" id="c1c6W41rnk"></path><path d="M265.5 602.5L262 579.5" id="cc6ohOBbR"></path><path d="M320 600.18L322 591L349 573.5" id="bpu0wfIrb"></path><path d="M165.5 187.5L195.5 144.5" id="j10QIZRojK"></path><path d="M162 223L192 187.5" id="bcvyO0rf4"></path><path d="M302.5 93.5L364 90.5" id="b6ZnTOKPNp"></path><path d="M393 117.5L404 129L442 133.5" id="fDZaLlCra"></path><path d="M448 217.5L438 191.5" id="b3UgTGnDrK"></path><path d="M460 201.5L456 174.5" id="a7TcE29IHE"></path><path d="M311.25 449.25L288.52 449.25" id="h3wYkeXRlo"></path><path d="M324.25 602.5L263.75 602.5" id="a4ZXvdAN5C"></path><path d="M242.5 644.7L265.5 607.5" id="b1HEcJpfEQ"></path><path d="M328 644.7L317 600.18" id="a3HpPUZcH"></path></defs><g><g><g><g><use xlink:href="#c11Nk4s1tL" opacity="1" fill-opacity="0" stroke="#000000" stroke-width="3" stroke-opacity="1"></use></g></g><g><g><use xlink:href="#cdh0Ntdlz" opacity="1" fill-opacity="0" stroke="#000000" stroke-width="3" stroke-opacity="1"></use></g></g><g><g><use xlink:href="#e2MsEZBs4p" opacity="1" fill-opacity="0" stroke="#000000" stroke-width="3" stroke-opacity="1"></use></g></g><g><g><use xlink:href="#b1cBaV9GDs" opacity="1" fill-opacity="0" stroke="#000000" stroke-width="3" stroke-opacity="1"></use></g></g><g><g><use xlink:href="#el5WvrXGB" opacity="1" fill-opacity="0" stroke="#000000" stroke-width="3" stroke-opacity="1"></use></g></g><g><g><use xlink:href="#a1q1PR2d9b" opacity="1" fill-opacity="0" stroke="#000000" stroke-width="3" stroke-opacity="1"></use></g></g><g><g><use xlink:href="#b2uYharQkc" opacity="1" fill-opacity="0" stroke="#000000" stroke-width="3" stroke-opacity="1"></use></g></g><g><g><use xlink:href="#b3Tym32yye" opacity="1" fill-opacity="0" stroke="#000000" stroke-width="3" stroke-opacity="1"></use></g></g><g><g><use xlink:href="#g2jDZ8p3qA" opacity="1" fill-opacity="0" stroke="#000000" stroke-width="3" stroke-opacity="1"></use></g></g><g><g><use xlink:href="#b18p2ZkCOz" opacity="1" fill-opacity="0" stroke="#000000" stroke-width="3" stroke-opacity="1"></use></g></g><g><g><use xlink:href="#aBBmu2AhB" opacity="1" fill-opacity="0" stroke="#000000" stroke-width="3" stroke-opacity="1"></use></g></g><g><g><use xlink:href="#caCQVVexru" opacity="1" fill-opacity="0" stroke="#000000" stroke-width="2" stroke-opacity="1"></use></g></g><g><g><use xlink:href="#o4epNlZsQy" opacity="1" fill-opacity="0" stroke="#000000" stroke-width="2" stroke-opacity="1"></use></g></g><g><g><use xlink:href="#bHjYtMLIP" opacity="1" fill-opacity="0" stroke="#000000" stroke-width="3" stroke-opacity="1"></use></g></g><g><g><use xlink:href="#c1W2SuT2TX" opacity="1" fill-opacity="0" stroke="#000000" stroke-width="3" stroke-opacity="1"></use></g></g><g><g><use xlink:href="#d1jHiBWQ8G" opacity="1" fill-opacity="0" stroke="#000000" stroke-width="3" stroke-opacity="1"></use></g></g><g><g><use xlink:href="#b3nuTjzjT" opacity="1" fill-opacity="0" stroke="#000000" stroke-width="3" stroke-opacity="1"></use></g></g><g><g><use xlink:href="#e3yaN80Ton" opacity="1" fill-opacity="0" stroke="#000000" stroke-width="3" stroke-opacity="1"></use></g></g><g><g><use xlink:href="#a2J6j5Omkz" opacity="1" fill-opacity="0" stroke="#000000" stroke-width="3" stroke-opacity="1"></use></g></g><g><g><use xlink:href="#d6bmqCKJfO" opacity="1" fill-opacity="0" stroke="#000000" stroke-width="3" stroke-opacity="1"></use></g></g><g><g><use xlink:href="#b1YF5eQzg" opacity="1" fill-opacity="0" stroke="#000000" stroke-width="3" stroke-opacity="1"></use></g></g><g><g><use xlink:href="#i1REUKZcNa" opacity="1" fill-opacity="0" stroke="#000000" stroke-width="3" stroke-opacity="1"></use></g></g><g><g><use xlink:href="#a7oce03E8" opacity="1" fill-opacity="0" stroke="#000000" stroke-width="3" stroke-opacity="1"></use></g></g><g><g><use xlink:href="#aCctPByHp" opacity="1" fill-opacity="0" stroke="#000000" stroke-width="3" stroke-opacity="1"></use></g></g><g><g><use xlink:href="#c2awNwjzhs" opacity="1" fill-opacity="0" stroke="#000000" stroke-width="2" stroke-opacity="1"></use></g></g><g><g><use xlink:href="#d6NmJ6HsSq" opacity="1" fill-opacity="0" stroke="#000000" stroke-width="2" stroke-opacity="1"></use></g></g><g><g><use xlink:href="#c3QsXa0qeU" opacity="1" fill-opacity="0" stroke="#000000" stroke-width="2" stroke-opacity="1"></use></g></g><g><g><use xlink:href="#h1miVHntq2" opacity="1" fill-opacity="0" stroke="#000000" stroke-width="2" stroke-opacity="1"></use></g></g><g><g><use xlink:href="#a6Wsr7IpPa" opacity="1" fill-opacity="0" stroke="#000000" stroke-width="2" stroke-opacity="1"></use></g></g><g><g><use xlink:href="#c3wxt15JCq" opacity="1" fill-opacity="0" stroke="#000000" stroke-width="3" stroke-opacity="1"></use></g></g><g><g><use xlink:href="#dcegSQoCU" opacity="1" fill-opacity="0" stroke="#000000" stroke-width="3" stroke-opacity="1"></use></g></g><g><g><use xlink:href="#cYfhayTQh" opacity="1" fill-opacity="0" stroke="#000000" stroke-width="3" stroke-opacity="1"></use></g></g><g><g><use xlink:href="#a7D48AAYy" opacity="1" fill-opacity="0" stroke="#000000" stroke-width="3" stroke-opacity="1"></use></g></g><g><g><use xlink:href="#a1hoTgBair" opacity="1" fill-opacity="0" stroke="#000000" stroke-width="3" stroke-opacity="1"></use></g></g><g><g><use xlink:href="#bw1aXvTbx" opacity="1" fill-opacity="0" stroke="#000000" stroke-width="3" stroke-opacity="1"></use></g></g><g><g><use xlink:href="#b3oSC0hZs" opacity="1" fill-opacity="0" stroke="#000000" stroke-width="3" stroke-opacity="1"></use></g></g><g><g><use xlink:href="#c1c6W41rnk" opacity="1" fill-opacity="0" stroke="#000000" stroke-width="3" stroke-opacity="1"></use></g></g><g><g><use xlink:href="#cc6ohOBbR" opacity="1" fill-opacity="0" stroke="#000000" stroke-width="3" stroke-opacity="1"></use></g></g><g><g><use xlink:href="#bpu0wfIrb" opacity="1" fill-opacity="0" stroke="#000000" stroke-width="3" stroke-opacity="1"></use></g></g><g><g><use xlink:href="#j10QIZRojK" opacity="1" fill-opacity="0" stroke="#000000" stroke-width="3" stroke-opacity="1"></use></g></g><g><g><use xlink:href="#bcvyO0rf4" opacity="1" fill-opacity="0" stroke="#000000" stroke-width="3" stroke-opacity="1"></use></g></g><g><g><use xlink:href="#b6ZnTOKPNp" opacity="1" fill-opacity="0" stroke="#000000" stroke-width="3" stroke-opacity="1"></use></g></g><g><g><use xlink:href="#fDZaLlCra" opacity="1" fill-opacity="0" stroke="#000000" stroke-width="3" stroke-opacity="1"></use></g></g><g><g><use xlink:href="#b3UgTGnDrK" opacity="1" fill-opacity="0" stroke="#000000" stroke-width="3" stroke-opacity="1"></use></g></g><g><g><use xlink:href="#a7TcE29IHE" opacity="1" fill-opacity="0" stroke="#000000" stroke-width="3" stroke-opacity="1"></use></g></g><g><g><use xlink:href="#h3wYkeXRlo" opacity="1" fill-opacity="0" stroke="#000000" stroke-width="2" stroke-opacity="1"></use></g></g><g><g><use xlink:href="#a4ZXvdAN5C" opacity="1" fill-opacity="0" stroke="#000000" stroke-width="3" stroke-opacity="1"></use></g></g><g><g><use xlink:href="#b1HEcJpfEQ" opacity="1" fill-opacity="0" stroke="#000000" stroke-width="3" stroke-opacity="1"></use></g></g><g><g><use xlink:href="#a3HpPUZcH" opacity="1" fill-opacity="0" stroke="#000000" stroke-width="3" stroke-opacity="1"></use></g></g></g></g></svg>