<?xml version="1.0" encoding="UTF-8" standalone="no"?>
<!DOCTYPE svg PUBLIC "-//W3C//DTD SVG 1.1//EN" "http://www.w3.org/Graphics/SVG/1.1/DTD/svg11.dtd">
<svg version="1.1" xmlns="http://www.w3.org/2000/svg" xmlns:xlink="http://www.w3.org/1999/xlink" preserveAspectRatio="xMidYMid meet" viewBox="0 0 640 640" width="640" height="640"><defs><path d="M333 486.5L333 476.5L342 445.5" id="b1yEPblKqm"></path><path d="M379 461.5L379 445.5L389 422.5" id="b5gnC91TzH"></path><path d="M342 495.5L319.5 486.5L291 466L230 418.5" id="nxjlQQSbi"></path><path d="M347 495.5L379 466L425 414.5" id="a2xltGX2Ni"></path><path d="M306 642.5L301 623.5L271 540.5L245 475.5L227 445.5L230 418.5" id="c1Smrl6lKp"></path><path d="M444 636.5L444 595.5L439 507.5L435 445.5L428 414.5" id="g1AqSbWC8O"></path><path d="M200 640L140 540.5L180 521.5L151 505.5L185 457L204 439.5L211 418.5L227 403.5" id="arxXNovPw"></path><path d="M537 642.5L555 533.5L510 521.75L534 500.5L490 466L455 445.5L428 418.5" id="b15HyjJ69X"></path><path d="M9 502.5L52 491.5L128 476.5L177 461.5" id="hM6O5OL42"></path><path d="M640 505.5L610 495.5L555 482L491.5 466" id="b1UPuloPUW"></path><path d="M379 521.75L356 539.5L325 545.5L300 521.75" id="a19jqAYy5C"></path><path d="M439 536.5L433 565.5L411 545.5L384 521.75L347 495.5" id="j1vx1fjziQ"></path><path d="M275 548.5L293 525.5L306 510.5L337.5 495.5" id="m3EVFycrJm"></path><path d="M303 625.5L303 610.5L311 572.5L326 548.5" id="d1xubdL6S0"></path><path d="M399 640L389 605.5L367 577.5L357 568.5L357 538.5" id="dcO4Gsm2S"></path><path d="M215 358.5L206 362.5L195 358.5L181 333.5L169 306.5L163 278.5L181 269.5L200 278.5" id="dtIffQrDl"></path><path d="M409 115.5L366 110.5L306 126.5L257 120.5L215 138.5" id="b1qghxNL1J"></path><path d="M436 149.5L449 138.5L454 124.5L439 110.5L405 105.5" id="b1n3KJSkW"></path><path d="M163 227.5L158 205.5L163 181.5L189 169.5L237 142.5" id="a2rPhT3OoD"></path><path d="M167 274.5L167 239.5L171 209.5L183.5 181.5" id="cskXdh0fV"></path><path d="M454 113.5L454 100.5L425 82.5L379 85.5L333 75.5L292 75.5L230 94.5L183.5 110.5L170 153.5L158 177.5" id="b8XsMa09T"></path><path d="M454 237.5L460 218.5L454 200.5L447 172.5L429.5 142.5" id="e1k4f4nUDQ"></path><path d="M465 274.5L465 262.5L449 257.5L436 245.5" id="j1TrB8lrQb"></path><path d="M465 256.5L460 237.5L454 227.5" id="d3vdiH1QLX"></path><path d="M444 342.5L454 329.5L457 316L459.5 269.5" id="j1qqCAag9r"></path><path d="M177 308.5L170 285.5L181 278.5L192 292.5" id="h1uLv2CO4d"></path><path d="M197.5 337.5L189 324.5L192 308.5" id="g1MOUfosi6"></path><path d="M444.75 316L451.75 299.5L439 278.5" id="a3FVYT9jtV"></path><path d="M386 142.5L409 164.5L422 209.5L432 260L439 306L439 346.5L429.5 373.5L389 403.5L357 418.5L320 418.5L279 418.5L242 403.5L219 365.5L202 316L202 287.5L202 269.5L209 227.5L215 174.5" id="a2xrU75n2"></path><path d="M399 142.5L363 126.5L323 138.5L275 138.5L220 160.5" id="b2yOpwZr7v"></path><path d="" id="f1tPhpFJtd"></path><path d="M384 351.25L372 342.5L360 340.25L347 337.5L338.5 340.25L329 340.25L317.5 342.5L302 349.25L288 358.75" id="a19LOyoYED"></path><path d="M365.5 342.5L353 351.25L333 352.75L320.5 352.75L303 351.25" id="d4qHbdGTxw"></path><path d="M372 339.75L361 332.75L347 327.25L336 330.75L328.5 328.75L314.5 332.75L294.5 347.63" id="h5tqsfqoU"></path><path d="M358.5 365.25L347 360.25L334.25 360.25L318.5 367.75" id="a76aMy3SB4"></path><path d="M387 393.25L372 403.5L351.5 414.5L331 415.75L314.5 406.75L294.5 397.75" id="a17W4RRiwk"></path><path d="M306 468.75L303 449.75L291 440.75" id="e29s6Ug2BS"></path><path d="M393.5 334.75L382 327.25L370.5 312.25L358.5 294.75" id="a6OSxXcRzV"></path><path d="M278 347.63L280.5 336.25L288 321.75L296.5 302.25" id="cEidfb4HN"></path><path d="M349.33 298.5L345.67 294.75L342.67 288.5L338.5 291.5L333.25 296.5L327.33 298.5L323 297.5L318.5 292.5L314.67 292.5L313 300.83L314.67 303.5" id="b8jLEHjRd"></path><path d="M310 305.83L306 304.83L300.33 301.5L300.33 292.5L303 283.83L310 274.17" id="ahlUouj6a"></path><path d="M352.33 298.17L356.67 294.75L356.67 288.5L352.33 280.5L347 267.83" id="fKu3yXZqO"></path><path d="M311 254.17L308.67 240.17L303 225.17" id="bcikjDxkW"></path><path d="M347 244.17L338.5 231.83L339.33 221.5" id="bcWQUG8Ol"></path><path d="M333.25 212.5L331.17 205.5L329.67 196.83L329.67 183.17" id="a4ID2f7m0"></path><path d="M305.17 218.83L310 212.5L312 207.17L311 190" id="b86LnjhgY"></path><path d="M339.67 218.83L334.25 216.83L327.67 209.17" id="e18lD9GUn"></path><path d="M241.67 250.5L247 245.83L251 240.83L260.67 236.17L274.33 232.17L282 230.17L287.25 232.17L294.5 231.17" id="f8jHXUkhGZ"></path><path d="M238 253.17L233.33 250.5L225.67 247.17" id="c4LmaIGbo"></path><path d="M241.08 256.5L236.08 255.17L224.75 256.5" id="c3hmkZbay"></path><path d="M238 259.83L233.67 263.17L225.67 265.83" id="a1JcAKiFVZ"></path><path d="M284 245.17L275 248.5L264 251.83L251 250.5" id="b8pIw65vt"></path><path d="M390 232.17L387 232.17L380.67 231.17L372 230.17L363 231.17L358.5 232.83L348 235.17" id="baJ7r3XgA"></path><path d="M387 232.83L380.67 235.17L370.33 235.17L358.5 233.83" id="h2dC2Pbytd"></path><path d="M293.33 240.33L288 239.67L278 237.5L272.67 237.5L261.33 240.33L249.33 247.17" id="aNsCVZ0G4"></path><path d="M284 240.33L278 242.33L266.33 245.17L255.33 245.17" id="c2mPtqDRB"></path><path d="M243 262.83L247 265.83L267.5 262.83L283 259.83L293.33 251.83" id="aKg12BeMz"></path><path d="M393.5 250.17L381.33 255.83L374.33 256.5L362.67 254.17L352.67 247.17" id="a259jy84MH"></path><path d="M395 234L388 227.5L373.08 223.5L358.5 223.5L351 227.5" id="dnLe6Ogfr"></path><path d="M276.67 207.5L255.33 212.5L240 219.5L235 232.83L245.33 228.75L261 222.83L280 219.5L294.5 215.17L297.33 211.5L293.33 204.42L276.67 207.5Z" id="i1KvQruMPm"></path><path d="M360.33 199.5L377.67 195.17L390 203.17L370.67 207.83L355.33 210.83L342.75 207.83L347 199.5L360.33 199.5Z" id="er1VG5L70"></path><path d="M411.5 415.75L411.5 407.25L420 391.25L429.5 375.25" id="c1Q21kxIMa"></path><path d="M426 413.25L425 385.25" id="agoguK9EM"></path><path d="M230 418.5L227 403.5L219.5 369.75" id="a4EZTtWPan"></path><path d="M221.5 394.13L212.5 391.25L203.5 383.75L192 367.75L185 342.5" id="b1fxZ8v1s1"></path><path d="M244.5 425.33L243 416.75L230 390.75" id="h7sVibf1LL"></path><path d="M413.5 235.17L403 237.5" id="a55wQ9gmM7"></path><path d="M413.5 227.5L405 232.67" id="c7FRM3iuI"></path><path d="M415 242.75L405 242.75" id="kllhyl4eJ"></path></defs><g><g><g><g><use xlink:href="#b1yEPblKqm" opacity="1" fill-opacity="0" stroke="#000000" stroke-width="2" stroke-opacity="1"></use></g></g><g><g><use xlink:href="#b5gnC91TzH" opacity="1" fill-opacity="0" stroke="#000000" stroke-width="2" stroke-opacity="1"></use></g></g><g><g><use xlink:href="#nxjlQQSbi" opacity="1" fill-opacity="0" stroke="#000000" stroke-width="3" stroke-opacity="1"></use></g></g><g><g><use xlink:href="#a2xltGX2Ni" opacity="1" fill-opacity="0" stroke="#000000" stroke-width="3" stroke-opacity="1"></use></g></g><g><g><use xlink:href="#c1Smrl6lKp" opacity="1" fill-opacity="0" stroke="#000000" stroke-width="3" stroke-opacity="1"></use></g></g><g><g><use xlink:href="#g1AqSbWC8O" opacity="1" fill-opacity="0" stroke="#000000" stroke-width="3" stroke-opacity="1"></use></g></g><g><g><use xlink:href="#arxXNovPw" opacity="1" fill-opacity="0" stroke="#000000" stroke-width="3" stroke-opacity="1"></use></g></g><g><g><use xlink:href="#b15HyjJ69X" opacity="1" fill-opacity="0" stroke="#000000" stroke-width="3" stroke-opacity="1"></use></g></g><g><g><use xlink:href="#hM6O5OL42" opacity="1" fill-opacity="0" stroke="#000000" stroke-width="3" stroke-opacity="1"></use></g></g><g><g><use xlink:href="#b1UPuloPUW" opacity="1" fill-opacity="0" stroke="#000000" stroke-width="3" stroke-opacity="1"></use></g></g><g><g><use xlink:href="#a19jqAYy5C" opacity="1" fill-opacity="0" stroke="#000000" stroke-width="3" stroke-opacity="1"></use></g></g><g><g><use xlink:href="#j1vx1fjziQ" opacity="1" fill-opacity="0" stroke="#000000" stroke-width="3" stroke-opacity="1"></use></g></g><g><g><use xlink:href="#m3EVFycrJm" opacity="1" fill-opacity="0" stroke="#000000" stroke-width="3" stroke-opacity="1"></use></g></g><g><g><use xlink:href="#d1xubdL6S0" opacity="1" fill-opacity="0" stroke="#000000" stroke-width="3" stroke-opacity="1"></use></g></g><g><g><use xlink:href="#dcO4Gsm2S" opacity="1" fill-opacity="0" stroke="#000000" stroke-width="3" stroke-opacity="1"></use></g></g><g><g><use xlink:href="#dtIffQrDl" opacity="1" fill-opacity="0" stroke="#000000" stroke-width="3" stroke-opacity="1"></use></g></g><g><g><use xlink:href="#b1qghxNL1J" opacity="1" fill-opacity="0" stroke="#000000" stroke-width="3" stroke-opacity="1"></use></g></g><g><g><use xlink:href="#b1n3KJSkW" opacity="1" fill-opacity="0" stroke="#000000" stroke-width="3" stroke-opacity="1"></use></g></g><g><g><use xlink:href="#a2rPhT3OoD" opacity="1" fill-opacity="0" stroke="#000000" stroke-width="3" stroke-opacity="1"></use></g></g><g><g><use xlink:href="#cskXdh0fV" opacity="1" fill-opacity="0" stroke="#000000" stroke-width="3" stroke-opacity="1"></use></g></g><g><g><use xlink:href="#b8XsMa09T" opacity="1" fill-opacity="0" stroke="#000000" stroke-width="3" stroke-opacity="1"></use></g></g><g><g><use xlink:href="#e1k4f4nUDQ" opacity="1" fill-opacity="0" stroke="#000000" stroke-width="3" stroke-opacity="1"></use></g></g><g><g><use xlink:href="#j1TrB8lrQb" opacity="1" fill-opacity="0" stroke="#000000" stroke-width="3" stroke-opacity="1"></use></g></g><g><g><use xlink:href="#d3vdiH1QLX" opacity="1" fill-opacity="0" stroke="#000000" stroke-width="3" stroke-opacity="1"></use></g></g><g><g><use xlink:href="#j1qqCAag9r" opacity="1" fill-opacity="0" stroke="#000000" stroke-width="3" stroke-opacity="1"></use></g></g><g><g><use xlink:href="#h1uLv2CO4d" opacity="1" fill-opacity="0" stroke="#000000" stroke-width="3" stroke-opacity="1"></use></g></g><g><g><use xlink:href="#g1MOUfosi6" opacity="1" fill-opacity="0" stroke="#000000" stroke-width="3" stroke-opacity="1"></use></g></g><g><g><use xlink:href="#a3FVYT9jtV" opacity="1" fill-opacity="0" stroke="#000000" stroke-width="3" stroke-opacity="1"></use></g></g><g><g><use xlink:href="#a2xrU75n2" opacity="1" fill-opacity="0" stroke="#000000" stroke-width="3" stroke-opacity="1"></use></g></g><g><g><use xlink:href="#b2yOpwZr7v" opacity="1" fill-opacity="0" stroke="#000000" stroke-width="3" stroke-opacity="1"></use></g></g><g><g><use xlink:href="#f1tPhpFJtd" opacity="1" fill-opacity="0" stroke="#000000" stroke-width="3" stroke-opacity="1"></use></g></g><g><g><use xlink:href="#a19LOyoYED" opacity="1" fill-opacity="0" stroke="#000000" stroke-width="3" stroke-opacity="1"></use></g></g><g><g><use xlink:href="#d4qHbdGTxw" opacity="1" fill-opacity="0" stroke="#000000" stroke-width="3" stroke-opacity="1"></use></g></g><g><g><use xlink:href="#h5tqsfqoU" opacity="1" fill-opacity="0" stroke="#000000" stroke-width="3" stroke-opacity="1"></use></g></g><g><g><use xlink:href="#a76aMy3SB4" opacity="1" fill-opacity="0" stroke="#000000" stroke-width="2" stroke-opacity="1"></use></g></g><g><g><use xlink:href="#a17W4RRiwk" opacity="1" fill-opacity="0" stroke="#000000" stroke-width="3" stroke-opacity="1"></use></g></g><g><g><use xlink:href="#e29s6Ug2BS" opacity="1" fill-opacity="0" stroke="#000000" stroke-width="2" stroke-opacity="1"></use></g></g><g><g><use xlink:href="#a6OSxXcRzV" opacity="1" fill-opacity="0" stroke="#000000" stroke-width="2" stroke-opacity="1"></use></g></g><g><g><use xlink:href="#cEidfb4HN" opacity="1" fill-opacity="0" stroke="#000000" stroke-width="2" stroke-opacity="1"></use></g></g><g><g><use xlink:href="#b8jLEHjRd" opacity="1" fill-opacity="0" stroke="#000000" stroke-width="3" stroke-opacity="1"></use></g></g><g><g><use xlink:href="#ahlUouj6a" opacity="1" fill-opacity="0" stroke="#000000" stroke-width="3" stroke-opacity="1"></use></g></g><g><g><use xlink:href="#fKu3yXZqO" opacity="1" fill-opacity="0" stroke="#000000" stroke-width="3" stroke-opacity="1"></use></g></g><g><g><use xlink:href="#bcikjDxkW" opacity="1" fill-opacity="0" stroke="#000000" stroke-width="3" stroke-opacity="1"></use></g></g><g><g><use xlink:href="#bcWQUG8Ol" opacity="1" fill-opacity="0" stroke="#000000" stroke-width="3" stroke-opacity="1"></use></g></g><g><g><use xlink:href="#a4ID2f7m0" opacity="1" fill-opacity="0" stroke="#000000" stroke-width="3" stroke-opacity="1"></use></g></g><g><g><use xlink:href="#b86LnjhgY" opacity="1" fill-opacity="0" stroke="#000000" stroke-width="3" stroke-opacity="1"></use></g></g><g><g><use xlink:href="#e18lD9GUn" opacity="1" fill-opacity="0" stroke="#000000" stroke-width="3" stroke-opacity="1"></use></g></g><g><g><use xlink:href="#f8jHXUkhGZ" opacity="1" fill-opacity="0" stroke="#000000" stroke-width="3" stroke-opacity="1"></use></g></g><g><g><use xlink:href="#c4LmaIGbo" opacity="1" fill-opacity="0" stroke="#000000" stroke-width="2" stroke-opacity="1"></use></g></g><g><g><use xlink:href="#c3hmkZbay" opacity="1" fill-opacity="0" stroke="#000000" stroke-width="2" stroke-opacity="1"></use></g></g><g><g><use xlink:href="#a1JcAKiFVZ" opacity="1" fill-opacity="0" stroke="#000000" stroke-width="2" stroke-opacity="1"></use></g></g><g><g><use xlink:href="#b8pIw65vt" opacity="1" fill-opacity="0" stroke="#000000" stroke-width="3" stroke-opacity="1"></use></g></g><g><g><use xlink:href="#baJ7r3XgA" opacity="1" fill-opacity="0" stroke="#000000" stroke-width="3" stroke-opacity="1"></use></g></g><g><g><use xlink:href="#h2dC2Pbytd" opacity="1" fill-opacity="0" stroke="#000000" stroke-width="3" stroke-opacity="1"></use></g></g><g><g><use xlink:href="#aNsCVZ0G4" opacity="1" fill-opacity="0" stroke="#000000" stroke-width="3" stroke-opacity="1"></use></g></g><g><g><use xlink:href="#c2mPtqDRB" opacity="1" fill-opacity="0" stroke="#000000" stroke-width="3" stroke-opacity="1"></use></g></g><g><g><use xlink:href="#aKg12BeMz" opacity="1" fill-opacity="0" stroke="#000000" stroke-width="3" stroke-opacity="1"></use></g></g><g><g><use xlink:href="#a259jy84MH" opacity="1" fill-opacity="0" stroke="#000000" stroke-width="3" stroke-opacity="1"></use></g></g><g><g><use xlink:href="#dnLe6Ogfr" opacity="1" fill-opacity="0" stroke="#000000" stroke-width="3" stroke-opacity="1"></use></g></g><g><g><use xlink:href="#i1KvQruMPm" opacity="1" fill-opacity="0" stroke="#000000" stroke-width="3" stroke-opacity="1"></use></g></g><g><g><use xlink:href="#er1VG5L70" opacity="1" fill-opacity="0" stroke="#000000" stroke-width="3" stroke-opacity="1"></use></g></g><g><g><use xlink:href="#c1Q21kxIMa" opacity="1" fill-opacity="0" stroke="#000000" stroke-width="2" stroke-opacity="1"></use></g></g><g><g><use xlink:href="#agoguK9EM" opacity="1" fill-opacity="0" stroke="#000000" stroke-width="3" stroke-opacity="1"></use></g></g><g><g><use xlink:href="#a4EZTtWPan" opacity="1" fill-opacity="0" stroke="#000000" stroke-width="3" stroke-opacity="1"></use></g></g><g><g><use xlink:href="#b1fxZ8v1s1" opacity="1" fill-opacity="0" stroke="#000000" stroke-width="3" stroke-opacity="1"></use></g></g><g><g><use xlink:href="#h7sVibf1LL" opacity="1" fill-opacity="0" stroke="#000000" stroke-width="2" stroke-opacity="1"></use></g></g><g><g><use xlink:href="#a55wQ9gmM7" opacity="1" fill-opacity="0" stroke="#000000" stroke-width="2" stroke-opacity="1"></use></g></g><g><g><use xlink:href="#c7FRM3iuI" opacity="1" fill-opacity="0" stroke="#000000" stroke-width="2" stroke-opacity="1"></use></g></g><g><g><use xlink:href="#kllhyl4eJ" opacity="1" fill-opacity="0" stroke="#000000" stroke-width="2" stroke-opacity="1"></use></g></g></g></g></svg>